<svg id="Capa_1" enable-background="new 0 0 501 501" height="512" viewBox="0 0 501 501" width="512" xmlns="http://www.w3.org/2000/svg"><path d="m490 250.5c0 135.31-109.69 245-245 245-77.794 0-147.12-36.258-192-92.797 33.181-41.801 53-94.687 53-152.203s-19.819-110.402-53-152.203c44.88-56.539 114.206-92.797 192-92.797 135.31 0 245 109.69 245 245z" fill="#0ab59e"/><path d="m331 479.981c-26.758 10.033-55.738 15.519-86 15.519-77.794 0-147.12-36.258-192-92.797 33.181-41.801 53-94.687 53-152.203s-19.819-110.402-53-152.203c44.88-56.539 114.206-92.797 192-92.797 30.262 0 59.242 5.487 86 15.519-92.887 34.826-159 124.433-159 229.481s66.113 194.655 159 229.481z" fill="#008a80"/><path d="m490 250.5c0 135.31-109.69 245-245 245-67.026 0-127.765-26.915-172-70.527 45.065-44.43 73-106.189 73-174.473 0-30.262-5.487-59.242-15.519-86h344c10.032 26.758 15.519 55.738 15.519 86z" fill="#6caac9"/><path d="m486.065 206.533h-157.065c2.627-14.495 6.528-28.546 11.584-42.033h133.896c5.057 13.487 8.958 27.538 11.585 42.033zm-197.065 217.967v10c0 5.523 4.477 10 10 10h95.649c11.671-9.016 22.505-19.061 32.367-30h-128.016c-5.523 0-10 4.477-10 10zm-80-10h-146.016c9.862 10.939 20.697 20.984 32.367 30h113.649c5.523 0 10-4.477 10-10v-10c0-5.523-4.477-10-10-10z" fill="#3691bb"/><path d="m271 124.5h-50v-45c0-13.807 11.193-25 25-25 13.807 0 25 11.193 25 25z" fill="#fc7117"/><path d="m271 79.5v45h-30v-45c0-10.252 6.17-19.062 15-22.92 8.83 3.858 15 12.668 15 22.92z" fill="#fc8635"/><path d="m501 258.915v97.712c0 11.046-8.954 20-20 20h-244.766-201.317c-22.167-36.843-34.917-79.996-34.917-126.127 0-59.271 21.048-113.627 56.076-156h286.989c6.664 0 12.891 3.319 16.605 8.852l77.525 115.48c2.467 3.674 6.082 6.427 10.281 7.826l39.849 13.283c8.166 2.723 13.675 10.366 13.675 18.974z" fill="#fff5f5"/><path d="m154.577 190.511v32.044c0 10.618-8.608 19.226-19.226 19.226h-27.558v27.558c0 10.618-8.608 19.226-19.226 19.226h-32.045c-10.618 0-19.226-8.608-19.226-19.226v-27.558h-27.558c-3.449 0-6.686-.909-9.485-2.5.414-24.031 4.747-47.114 12.814-67.93 8.602-.044 24.229-.066 24.229-.066v-27.558c0-10.619 8.608-19.227 19.226-19.227h32.044c10.618 0 19.226 8.608 19.226 19.227v27.558h27.558c10.619-.001 19.227 8.607 19.227 19.226z" fill="#fdb44c"/><path d="m142.553 258.266c-.411 18.886-16.706 34.204-37.313 34.204s-36.76-15.322-37.313-34.204c-.37-12.636 14.112-25.754 28.391-22.543 2.859.643 14.985.643 17.844 0 14.278-3.211 28.646 10.829 28.391 22.543zm-55.831-60.989c-6.581 1.16-10.841 8.198-9.515 15.72 1.326 7.521 7.736 12.678 14.318 11.518s10.841-8.198 9.515-15.72-7.737-12.678-14.318-11.518zm-34.113 18.567c-5.787 3.341-7.383 11.412-3.565 18.026 3.819 6.614 11.606 9.267 17.393 5.926s7.383-11.412 3.565-18.026-11.605-9.267-17.393-5.926zm56.83-7.049c-1.326 7.521 2.934 14.559 9.515 15.72 6.581 1.16 12.991-3.996 14.318-11.518 1.326-7.521-2.934-14.559-9.515-15.72s-12.992 3.996-14.318 11.518zm31.037 12.975c-3.819 6.614-2.223 14.685 3.565 18.026 5.787 3.341 13.575.688 17.393-5.926 3.819-6.614 2.223-14.685-3.565-18.026s-13.574-.688-17.393 5.926z" fill="#ef5300"/><path d="m142.553 258.266c-.114 5.25-1.456 10.224-3.777 14.671-5.45 2.92-11.787 4.593-18.596 4.593-20.608 0-36.76-15.322-37.313-34.204-.065-2.212.326-4.439 1.091-6.591 3.876-1.48 8.127-1.963 12.36-1.011 2.859.643 14.985.643 17.844 0 14.278-3.212 28.646 10.828 28.391 22.542zm-41.272-46.774c-.003-.886-.081-1.788-.242-2.698-1.326-7.521-7.736-12.678-14.318-11.518-.826.146-1.615.384-2.361.704-1.608 2.425-2.32 5.622-1.737 8.93 1.107 6.277 6.456 10.58 11.948 9.611 2.922-.513 5.295-2.416 6.71-5.029zm-37.018 19.189c-4.586 2.648-10.757.545-13.783-4.696-1.204-2.085-1.728-4.352-1.635-6.493.929-1.482 2.192-2.739 3.765-3.647 5.04-2.91 11.596-1.273 15.728 3.566 1.19 4.477-.342 9.115-4.075 11.27zm69.009-17.684c-.203 1.152-.526 2.249-.95 3.275-1.995 1.296-4.351 1.869-6.735 1.449-5.492-.968-9.047-6.842-7.94-13.118.55-3.118 2.147-5.749 4.288-7.489.603.002 1.212.055 1.822.163 6.581 1.161 10.841 8.199 9.515 15.72zm27.519 21.897c-2.175.458-4.424.181-6.387-.952-4.658-2.689-5.943-9.185-2.869-14.508 1.118-1.937 2.66-3.452 4.392-4.466.666.224 1.316.515 1.942.877 5.787 3.341 7.383 11.412 3.565 18.026-.203.352-.418.693-.643 1.023z" fill="#fc7117"/><path d="m385.878 346.628h115.122v10c0 11.046-8.954 20-20 20h-370v-30h110v-252.128h30v252.128h104.878v-142.378h24.665c2.946 0 5.335 2.388 5.335 5.335zm85.122-32.128c-5.523 0-10 4.477-10 10 0 5.523 4.477 10 10 10h30v-20z" fill="#f7e6b0"/><path d="m281 274.5h-60v-20h60c5.523 0 10 4.477 10 10 0 5.523-4.477 10-10 10z" fill="#ebae56"/><path d="m461 254.5h39.507c.323 1.428.493 2.907.493 4.415v35.585h-40c-11.046 0-20-8.954-20-20 0-11.046 8.954-20 20-20z" fill="#fc8635"/><path d="m491 294.5h-30c-11.046 0-20-8.954-20-20s8.954-20 20-20h30c-11.046 0-20 8.954-20 20s8.954 20 20 20z" fill="#fc7117"/><path d="m430.878 374.5c0 33.137-26.863 60-60 60s-60-26.863-60-60 26.863-60 60-60 60 26.863 60 60zm-351.878-60c-25.812 0-47.817 16.299-56.284 39.167 14.389 30.951 35.053 58.395 60.356 80.697 31.238-2.094 55.928-28.095 55.928-59.864 0-33.137-26.863-60-60-60z" fill="#024c67"/><path d="m430.878 374.5c0 27.027-17.87 49.88-42.439 57.389-24.569-7.509-42.439-30.362-42.439-57.389s17.87-49.88 42.439-57.389c24.569 7.509 42.439 30.362 42.439 57.389zm-334.317-57.389c-24.569 7.509-42.439 30.362-42.439 57.389s17.87 49.88 42.439 57.389c24.569-7.509 42.439-30.362 42.439-57.389s-17.87-49.88-42.439-57.389z" fill="#025f80"/><path d="m375.861 220.195h-144.861c-5.523 0-10-4.477-10-10v-75.695c0-5.523 4.477-10 10-10h83.383c9.996 0 19.336 4.979 24.908 13.279l44.873 66.842c4.459 6.643-.302 15.574-8.303 15.574z" fill="#025f80"/><path d="m379.704 197.978c-14.018 6.733-136.954 15.522-138.539-56.419-.13-5.893 1.02-11.612 2.936-17.059h70.282c9.996 0 19.336 4.979 24.908 13.279z" fill="#0680ae"/><path d="m109 374.5c0 16.569-13.431 30-30 30s-30-13.431-30-30 13.431-30 30-30 30 13.431 30 30zm261.878-30c-16.569 0-30 13.431-30 30s13.431 30 30 30 30-13.431 30-30-13.432-30-30-30z" fill="#88b9d3"/><path d="m400.878 374.5c0 3.883-.738 7.593-2.08 10.999-3.406 1.343-7.116 2.08-10.999 2.08-16.569 0-30-13.431-30-30 0-3.883.738-7.593 2.08-10.999 3.406-1.343 7.116-2.08 10.999-2.08 16.568 0 30 13.431 30 30zm-321.878-30c-3.883 0-7.593.738-10.999 2.08-1.343 3.406-2.08 7.116-2.08 10.999 0 16.569 13.431 30 30 30 3.883 0 7.593-.738 10.999-2.08 1.343-3.406 2.08-7.116 2.08-10.999 0-16.569-13.431-30-30-30z" fill="#b3d1e1"/></svg>