<svg width="671" height="475" viewBox="0 0 671 475" fill="none" xmlns="http://www.w3.org/2000/svg">
<g clip-path="url(#clip0)">
<path opacity="0.1" d="M223.08 474.733C255.757 474.733 282.247 470.481 282.247 465.236C282.247 459.991 255.757 455.739 223.08 455.739C190.402 455.739 163.912 459.991 163.912 465.236C163.912 470.481 190.402 474.733 223.08 474.733Z" fill="#424B76"/>
<path opacity="0.1" d="M544.705 475C585.481 475 618.536 470.748 618.536 465.503C618.536 460.258 585.481 456.006 544.705 456.006C503.929 456.006 470.873 460.258 470.873 465.503C470.873 470.748 503.929 475 544.705 475Z" fill="#424B76"/>
<path opacity="0.1" d="M8.4039 205.234H70.0304V289.179H12.9155C12.7637 290.04 12.618 290.908 12.4601 291.776H70.0304V359.475C69.9272 359.445 69.8361 359.409 69.739 359.372C68.1116 358.729 66.4964 358.049 64.8812 357.321L63.8489 356.854C62.2297 356.089 60.6105 355.28 58.9912 354.426C58.4265 354.129 57.8618 353.82 57.3031 353.504C48.3138 348.472 40.1474 342.095 33.0873 334.595C32.8808 334.395 32.6865 334.182 32.4801 333.988C31.4964 332.92 30.5309 331.84 29.5958 330.735L28.5635 329.522C27.4584 328.168 26.3897 326.779 25.3513 325.371C25.1995 325.164 25.0538 324.958 24.8959 324.764C20.673 318.912 17.1667 312.576 14.4518 305.891C14.3668 305.691 14.2939 305.472 14.215 305.284C13.3811 303.14 12.6423 300.976 11.9986 298.791C11.7193 297.875 11.4521 296.971 11.2214 296.018C11.1364 295.739 11.0635 295.466 10.9967 295.193C7.54772 281.739 7.14088 267.763 7.14088 253.885C7.14088 252.264 7.14088 250.638 7.14088 249.03C7.14088 243.417 7.20768 237.767 7.30483 232.123C7.30483 230.661 7.36555 229.204 7.39591 227.736C7.48092 224.01 7.60237 220.284 7.76024 216.558C7.79668 215.52 7.84525 214.489 7.8999 213.457C7.8999 212.862 7.93027 212.267 7.99099 211.673C8.13672 209.512 8.25816 207.37 8.4039 205.234Z" fill="#424B76"/>
<path opacity="0.1" d="M70.0304 111.768H36.2266C41.7216 103.173 47.7255 94.9131 54.2063 87.0334C59.228 80.8678 64.529 74.8601 70.0304 69.0708V111.768Z" fill="#424B76"/>
<path opacity="0.1" d="M70.0304 114.366V202.637H8.5982C8.5982 202.382 8.64071 202.121 8.65893 201.866C8.71358 201.168 8.76822 200.47 8.82895 199.779C8.89574 198.965 8.96861 198.146 9.04754 197.351C9.12648 196.556 9.21149 195.585 9.30258 194.705C9.39366 193.826 9.47867 192.933 9.5819 192.054C9.68512 191.174 9.77621 190.294 9.88551 189.42C9.9948 188.546 10.092 187.66 10.2073 186.786C10.2984 186.058 10.3956 185.336 10.4927 184.608C10.6324 183.582 10.7781 182.55 10.936 181.531C10.936 181.379 10.9785 181.221 11.0028 181.076C12.1111 173.613 13.6212 166.215 15.5266 158.914C17.521 151.255 20.0679 143.751 23.1471 136.461C26.4198 128.834 30.2517 121.459 34.6114 114.396L70.0304 114.366Z" fill="#424B76"/>
<path opacity="0.1" d="M84.7433 205.228V289.179H216.37V205.228H84.7433ZM84.7433 291.77V363.863C85.4963 364.021 86.2431 364.172 86.984 364.3C87.9919 364.494 88.9938 364.67 90.02 364.822C90.2144 364.852 90.4147 364.882 90.6273 364.901C91.028 364.967 91.4409 365.022 91.8417 365.076C92.8557 365.216 93.8637 365.331 94.8778 365.422C95.3575 365.471 95.8433 365.513 96.329 365.55L97.501 365.641C98.1385 365.689 98.77 365.726 99.3955 365.744C99.7841 365.744 100.173 365.78 100.573 365.793C100.877 365.793 101.181 365.793 101.496 365.793C101.812 365.793 102.262 365.793 102.644 365.793C103.166 365.793 103.689 365.793 104.205 365.793H104.903C105.425 365.793 105.947 365.793 106.463 365.744H106.5C106.858 365.744 107.223 365.744 107.587 365.696C107.688 365.702 107.789 365.702 107.89 365.696C108.194 365.696 108.498 365.695 108.789 365.653H109.002L111.036 365.495C111.704 365.435 112.378 365.356 113.058 365.283L114.442 365.119C120.075 364.33 125.645 363.146 131.11 361.575C143.388 358.152 155.399 353.364 167.671 349.857C183.538 345.336 201.068 343.115 216.4 348.643V291.77H84.7433ZM216.37 111.768V0.00606373C201.959 -0.14997 187.587 1.53451 173.604 5.01859C140.273 13.3869 110.368 31.5376 84.7433 54.719V111.762H91.3498V114.353H84.7433V202.637H216.37V114.359H118.474V111.768H216.37ZM385.438 74.0166C377.192 73.7253 368.994 71.1159 361.58 67.0864C347.401 59.3795 336.077 47.4794 323.422 37.4361C297.13 16.5183 264.522 3.89593 231.071 0.764617V111.768H418.974L419.442 111.277L385.438 74.0166ZM402.555 70.9824L420.705 90.8868V65.7635C414.627 66.516 409.301 68.3062 402.579 70.9581L402.555 70.9824ZM420.705 381.765V291.77H382.031C381.928 291.388 381.825 290.999 381.703 290.611C381.819 290.999 381.916 291.388 382.025 291.77H231.095V356.854C232.528 357.916 233.943 359.032 235.345 360.167C236.857 361.381 238.351 362.661 239.851 363.917L241.363 365.168C242.086 365.774 242.814 366.381 243.549 366.952C245.006 368.133 246.478 369.298 247.963 370.447C248.698 371.054 249.451 371.6 250.198 372.17C262.055 381.23 274.563 389.406 287.621 396.632C290.548 398.251 293.501 399.83 296.48 401.372C298.466 402.385 300.464 403.393 302.467 404.37C305.479 405.838 308.515 407.254 311.576 408.617C339.791 421.275 369.626 429.961 400.229 434.426C407.026 435.43 413.849 436.219 420.699 436.793V381.759H421.306L420.705 381.765ZM231.095 114.359V202.637H420.729V114.359H231.095ZM231.095 205.228V289.179H420.729V205.228H231.095ZM435.448 65.6543V93.6783L458.613 68.2759C450.938 67.0379 443.216 66.1539 435.448 65.624V65.6543ZM435.448 205.258V289.179H619.89V205.228L435.448 205.258ZM619.216 388.428L619.866 291.77H435.448V437.758C447.328 438.257 459.227 438.115 471.092 437.333H471.298C476.966 436.977 482.607 436.459 488.221 435.78H488.349C518.303 432.296 547.593 424.485 575.302 412.592L619.216 388.428ZM655.455 219.052C654.763 217.42 654.04 215.799 653.306 214.197C651.933 211.163 650.482 208.214 648.988 205.265H634.597V289.179H670.982C670.964 265.415 664.946 241.141 655.473 219.022L655.455 219.052ZM634.597 291.8V374.938C644.847 365.119 653.506 353.886 659.742 341.046C667.241 325.583 670.672 308.84 670.951 291.788L634.597 291.8ZM634.597 180.797V202.643H647.64C643.695 195.122 639.347 187.82 634.615 180.766L634.597 180.797ZM509.51 82.124C508.551 81.7599 507.592 81.3897 506.626 81.0317C496.444 77.2737 486.038 74.1486 475.47 71.6742L440.02 110.555L439.34 111.277L439.796 111.774H565.963C548.392 99.6863 529.448 89.7232 509.529 82.0937L509.51 82.124ZM569.661 114.39H438.035L435.448 116.757V202.637H458.122H458.158H619.915V161.038C605.282 143.352 588.393 127.659 569.68 114.359L569.661 114.39Z" fill="#424B76"/>
<path opacity="0.1" d="M70.0304 158.89V202.637H8.5982C8.5982 202.382 8.64071 202.121 8.65893 201.866C8.71358 201.168 8.76822 200.47 8.82895 199.779C8.89574 198.965 8.96861 198.146 9.04754 197.351C9.12648 196.556 9.21149 195.585 9.30258 194.705C9.39366 193.826 9.47867 192.933 9.5819 192.054C9.68512 191.174 9.77621 190.294 9.88551 189.42C9.9948 188.546 10.092 187.66 10.2073 186.786C10.2984 186.058 10.3956 185.336 10.4927 184.608C10.6324 183.582 10.7781 182.55 10.936 181.531C10.936 181.379 10.9785 181.221 11.0028 181.076C12.1111 173.613 13.6212 166.215 15.5266 158.914L70.0304 158.89Z" fill="#424B76"/>
<path opacity="0.1" d="M8.4039 205.234H70.0304V289.179H12.9155C12.7637 290.04 12.618 290.908 12.4601 291.776H70.0304V359.475C69.9272 359.445 69.8361 359.409 69.739 359.372C68.1116 358.729 66.4964 358.049 64.8812 357.321L63.8489 356.854C62.2297 356.089 60.6105 355.28 58.9912 354.426C58.4265 354.129 57.8618 353.82 57.3031 353.504C48.3138 348.472 40.1474 342.095 33.0873 334.595C32.8808 334.395 32.6865 334.182 32.4801 333.988C31.4964 332.92 30.5309 331.84 29.5958 330.735L28.5635 329.522C27.4584 328.168 26.3897 326.779 25.3513 325.371C25.1995 325.164 25.0538 324.958 24.8959 324.764C20.673 318.912 17.1667 312.576 14.4518 305.891C14.3668 305.691 14.2939 305.472 14.215 305.284C13.3811 303.14 12.6423 300.976 11.9986 298.791C11.7193 297.875 11.4521 296.971 11.2214 296.018C11.1364 295.739 11.0635 295.466 10.9967 295.193C7.54772 281.739 7.14088 267.763 7.14088 253.885C7.14088 252.264 7.14088 250.638 7.14088 249.03C7.14088 243.417 7.20768 237.767 7.30483 232.123C7.30483 230.661 7.36555 229.204 7.39591 227.736C7.48092 224.01 7.60237 220.284 7.76024 216.558C7.79668 215.52 7.84525 214.489 7.8999 213.457C7.8999 212.862 7.93027 212.267 7.99099 211.673C8.13672 209.512 8.25816 207.37 8.4039 205.234Z" fill="#424B76"/>
<path opacity="0.1" d="M131.08 127V202.637H84.7433V127H91.3498V101.391H118.468V127H131.08Z" fill="#424B76"/>
<path opacity="0.1" d="M131.08 205.228H84.7494V289.173H131.08V205.228Z" fill="#424B76"/>
<path opacity="0.1" d="M84.7433 291.776H131.08V361.563C125.614 363.132 120.044 364.315 114.412 365.101L113.028 365.271C112.347 365.35 111.673 365.416 111.005 365.483C110.338 365.55 109.645 365.598 108.971 365.641H108.759C108.467 365.641 108.152 365.677 107.866 365.683H107.556C107.192 365.683 106.828 365.72 106.463 365.732C105.947 365.762 105.431 365.768 104.903 365.774C104.678 365.774 104.466 365.774 104.241 365.774C103.719 365.774 103.203 365.774 102.681 365.774H101.533C101.223 365.774 100.926 365.774 100.604 365.774L99.4319 365.732C98.8247 365.732 98.1689 365.665 97.5374 365.623L96.3715 365.538L94.9203 365.404C93.9002 365.313 92.8861 365.198 91.8842 365.058L90.6698 364.888L90.0625 364.803C89.0485 364.646 88.0466 364.476 87.0265 364.282C86.2796 364.154 85.5388 363.996 84.7858 363.845L84.7433 291.776Z" fill="#424B76"/>
<path opacity="0.1" d="M420.729 118.067H382.523V202.631H420.729V118.067Z" fill="#424B76"/>
<path opacity="0.1" d="M420.735 205.228V289.179H231.095V252.968H332.106V274.329H382.523V205.228H420.735Z" fill="#424B76"/>
<path opacity="0.1" d="M421.336 381.783H420.729V436.854C413.888 436.275 407.067 435.488 400.266 434.493C369.648 430.013 339.8 421.309 311.576 408.63C303.427 404.964 295.444 400.963 287.627 396.626C274.57 389.397 262.06 381.221 250.198 372.164C247.219 369.883 244.278 367.548 241.375 365.161C239.365 363.505 237.368 361.806 235.345 360.155C233.943 359.02 232.528 357.904 231.095 356.836V291.776H382.019C381.916 291.388 381.812 290.999 381.703 290.617C381.819 290.999 381.928 291.388 382.031 291.776H420.729V381.746C420.936 381.753 421.136 381.771 421.336 381.783Z" fill="#424B76"/>
<path opacity="0.1" d="M520.373 111.768H495.478V104.037H506.638V81.0074C507.606 81.3594 508.569 81.7215 509.529 82.0937V104.037H520.373V111.768Z" fill="#424B76"/>
<path opacity="0.1" d="M580.354 202.637H458.134C458.134 202.637 458.134 202.637 458.176 202.667L458.122 202.637H435.448V118.073H441.872V180.578H471.231V143.561H495.484V114.366H520.38V143.585H544.632V180.602H580.354V202.637Z" fill="#424B76"/>
<path opacity="0.1" d="M435.448 205.228V289.179H580.355V205.228H435.448ZM619.69 387.997L619.89 321.548H580.355V291.812H435.448V437.758C447.328 438.257 459.227 438.115 471.092 437.333H471.298C476.966 436.977 482.607 436.459 488.221 435.78H488.349C518.303 432.296 547.593 424.485 575.302 412.592" fill="#424B76"/>
<path opacity="0.1" d="M637.172 291.776H670.976C670.678 308.822 667.253 325.565 659.76 341.027C653.524 353.874 644.859 365.107 634.622 374.92V321.517H637.172V291.776Z" fill="#424B76"/>
<path opacity="0.1" d="M670.994 289.179H637.172V219.022H655.473C664.946 241.141 670.964 265.415 670.994 289.179Z" fill="#424B76"/>
<path opacity="0.1" d="M420.735 141.576H400.266V168.089H420.735V141.576Z" fill="#424B76"/>
<path opacity="0.1" d="M420.735 196.532H400.266V202.637H420.735V196.532Z" fill="#424B76"/>
<path opacity="0.1" d="M420.735 205.228H400.266V223.039H420.735V205.228Z" fill="#424B76"/>
<path opacity="0.1" d="M420.735 251.488H400.266V278.001H420.735V251.488Z" fill="#424B76"/>
<path opacity="0.1" d="M420.735 306.443H400.266V332.956H420.735V306.443Z" fill="#424B76"/>
<path opacity="0.1" d="M420.729 381.747C420.936 381.747 421.136 381.747 421.336 381.783H420.729V387.942H400.266V361.399H420.729V381.747Z" fill="#424B76"/>
<path opacity="0.1" d="M420.729 416.343V436.824C413.888 436.245 407.067 435.458 400.266 434.463V416.343H420.729Z" fill="#424B76"/>
<path opacity="0.1" d="M318.82 287.231H231.095V289.179H318.82V287.231Z" fill="#424B76"/>
<path opacity="0.1" d="M318.82 291.77H231.095V299.234H318.82V291.77Z" fill="#424B76"/>
<path opacity="0.1" d="M318.82 323.702H231.095V335.705H318.82V323.702Z" fill="#424B76"/>
<path opacity="0.1" d="M318.814 360.173V372.177H250.198C247.219 369.903 244.276 367.569 241.369 365.174C239.359 363.517 237.368 361.818 235.339 360.173H318.814Z" fill="#424B76"/>
<path opacity="0.1" d="M318.814 396.638V408.63H311.57C303.429 404.96 295.448 400.957 287.627 396.62L318.814 396.638Z" fill="#424B76"/>
<path opacity="0.1" d="M488.367 213.366H471.098V230.624H488.367V213.366Z" fill="#424B76"/>
<path opacity="0.1" d="M114.454 132.953H97.1852V150.212H114.454V132.953Z" fill="#424B76"/>
<path opacity="0.1" d="M114.454 173.041H97.1852V190.3H114.454V173.041Z" fill="#424B76"/>
<path opacity="0.1" d="M114.454 213.129H97.1852V230.388H114.454V213.129Z" fill="#424B76"/>
<path opacity="0.1" d="M114.454 253.211H97.1852V270.47H114.454V253.211Z" fill="#424B76"/>
<path opacity="0.1" d="M114.454 293.299H97.1852V310.558H114.454V293.299Z" fill="#424B76"/>
<path opacity="0.1" d="M114.454 333.387H97.1852V350.646H114.454V333.387Z" fill="#424B76"/>
<path opacity="0.1" d="M554.293 213.366H537.023V230.624H554.293V213.366Z" fill="#424B76"/>
<path opacity="0.1" d="M488.367 255.936H471.098V273.194H488.367V255.936Z" fill="#424B76"/>
<path opacity="0.1" d="M554.293 255.936H537.023V273.194H554.293V255.936Z" fill="#424B76"/>
<path opacity="0.1" d="M488.367 298.5H471.098V315.758H488.367V298.5Z" fill="#424B76"/>
<path opacity="0.1" d="M554.293 298.5H537.023V315.758H554.293V298.5Z" fill="#424B76"/>
<path opacity="0.1" d="M488.367 341.07H471.098V358.328H488.367V341.07Z" fill="#424B76"/>
<path opacity="0.1" d="M554.293 341.07H537.023V358.328H554.293V341.07Z" fill="#424B76"/>
<path opacity="0.1" d="M488.367 383.64H471.098V400.898H488.367V383.64Z" fill="#424B76"/>
<path opacity="0.1" d="M554.293 383.64H537.023V400.898H554.293V383.64Z" fill="#424B76"/>
<path opacity="0.1" d="M471.098 437.333V426.204H488.361V435.749L471.098 437.333Z" fill="#424B76"/>
<path opacity="0.1" d="M10.9299 181.064V190.937H70.0304V181.064H10.9299ZM16.8199 190.318H11.9986V181.67H16.8564L16.8199 190.318ZM22.7039 190.318H17.8461V181.67H22.7039V190.318ZM28.5757 190.318H23.7179V181.67H28.5757V190.318ZM34.4596 190.318H29.6079V181.67H34.4657L34.4596 190.318ZM40.3375 190.318H35.4797V181.67H40.3375V190.318ZM46.2214 190.318H41.3637V181.67H46.2214V190.318ZM52.1054 190.318H47.2476V181.67H52.1054V190.318ZM57.9832 190.318H53.1255V181.67H57.9832V190.318ZM63.8611 190.318H59.0034V181.67H63.8611V190.318ZM69.739 190.318H64.8812V181.67H69.739V190.318Z" fill="#424B76"/>
<path opacity="0.1" d="M10.9299 209.792V219.665H70.0304V209.792H10.9299ZM16.8199 219.04H11.9986V210.417H16.8564L16.8199 219.04ZM22.7039 219.04H17.8461V210.417H22.7039V219.04ZM28.5757 219.04H23.7179V210.417H28.5757V219.04ZM34.4596 219.04H29.6079V210.417H34.4657L34.4596 219.04ZM40.3375 219.04H35.4797V210.417H40.3375V219.04ZM46.2214 219.04H41.3637V210.417H46.2214V219.04ZM52.1054 219.04H47.2476V210.417H52.1054V219.04ZM57.9832 219.04H53.1255V210.417H57.9832V219.04ZM63.8611 219.04H59.0034V210.417H63.8611V219.04ZM69.739 219.04H64.8812V210.417H69.739V219.04Z" fill="#424B76"/>
<path opacity="0.1" d="M10.9299 238.532V248.423H70.0304V238.532H10.9299ZM16.8199 247.78H11.9986V239.151H16.8564L16.8199 247.78ZM22.7039 247.78H17.8461V239.151H22.7039V247.78ZM28.5757 247.78H23.7179V239.151H28.5757V247.78ZM34.4596 247.78H29.6079V239.151H34.4657L34.4596 247.78ZM40.3375 247.78H35.4797V239.151H40.3375V247.78ZM46.2214 247.78H41.3637V239.151H46.2214V247.78ZM52.1054 247.78H47.2476V239.151H52.1054V247.78ZM57.9832 247.78H53.1255V239.151H57.9832V247.78ZM63.8611 247.78H59.0034V239.151H63.8611V247.78ZM69.739 247.78H64.8812V239.151H69.739V247.78Z" fill="#424B76"/>
<path opacity="0.1" d="M10.9299 267.272V277.133H70.0304V267.272H10.9299ZM16.8199 276.52H11.9986V267.885H16.8564L16.8199 276.52ZM22.7039 276.52H17.8461V267.885H22.7039V276.52ZM28.5757 276.52H23.7179V267.885H28.5757V276.52ZM34.4596 276.52H29.6079V267.885H34.4657L34.4596 276.52ZM40.3375 276.52H35.4797V267.885H40.3375V276.52ZM46.2214 276.52H41.3637V267.885H46.2214V276.52ZM52.1054 276.52H47.2476V267.885H52.1054V276.52ZM57.9832 276.52H53.1255V267.885H57.9832V276.52ZM63.8611 276.52H59.0034V267.885H63.8611V276.52ZM69.739 276.52H64.8812V267.885H69.739V276.52Z" fill="#424B76"/>
<path opacity="0.1" d="M11.185 296.006C11.4218 296.934 11.6889 297.863 11.9683 298.779V296.625H16.826V305.254H14.2271C14.3061 305.454 14.385 305.673 14.4639 305.861H70.0304V296.006H11.185ZM22.7221 305.254H17.8644V296.625H22.7221V305.254ZM28.5939 305.254H23.7361V296.625H28.5939V305.254ZM34.4778 305.254H29.6079V296.625H34.4657L34.4778 305.254ZM40.3557 305.254H35.498V296.625H40.3557V305.254ZM46.2396 305.254H41.3819V296.625H46.2396V305.254ZM52.1236 305.254H47.2658V296.625H52.1236V305.254ZM58.0014 305.254H53.1437V296.625H58.0014V305.254ZM63.8793 305.254H59.0216V296.625H63.8793V305.254ZM69.7572 305.254H64.8994V296.625H69.7572V305.254Z" fill="#424B76"/>
<path opacity="0.1" d="M24.9081 324.746C25.0599 324.94 25.2056 325.158 25.3635 325.353H28.5757V329.497C28.9218 329.91 29.2618 330.323 29.614 330.711V325.328H34.4718V333.988H32.5044C32.6987 334.188 32.8869 334.401 33.1116 334.595H70.0486V324.746H24.9081ZM40.3375 333.988H35.4797V325.365H40.3375V333.988ZM46.2214 333.988H41.3637V325.365H46.2214V333.988ZM52.1054 333.988H47.2476V325.365H52.1054V333.988ZM57.9832 333.988H53.1255V325.365H57.9832V333.988ZM63.8611 333.988H59.0034V325.365H63.8611V333.988ZM69.739 333.988H64.8812V325.365H69.739V333.988Z" fill="#424B76"/>
<path opacity="0.1" d="M57.3274 353.48C57.88 353.795 58.4447 354.087 59.0155 354.402V354.099H63.8732V356.83L64.9055 357.309V354.099H69.7633V359.348C69.8564 359.394 69.9541 359.431 70.0547 359.457V353.48H57.3274Z" fill="#424B76"/>
<path opacity="0.1" d="M458.134 202.637H458.17H458.134ZM420.729 381.74H421.336H420.729ZM381.703 290.611C381.819 290.999 381.916 291.388 382.025 291.77C381.928 291.388 381.825 290.999 381.703 290.611ZM458.134 202.619H458.17H458.134ZM91.3741 111.75V114.341H118.499V111.75H91.3741ZM420.729 381.74H421.336H420.729ZM381.703 290.611C381.819 290.999 381.916 291.388 382.025 291.77C381.928 291.388 381.825 290.999 381.703 290.611ZM458.134 202.619H458.17H458.134ZM420.729 381.722H421.336H420.729ZM381.703 290.611C381.819 290.999 381.916 291.388 382.025 291.77C381.928 291.388 381.825 290.999 381.703 290.611Z" fill="#424B76"/>
<path d="M280.292 230.4C280.292 230.4 277.899 230.066 277.899 226.583C277.899 223.1 276.187 216.594 276.187 216.594C276.187 216.564 274.705 205.265 272.659 203.468C270.613 201.672 267.983 191.125 267.983 191.125C267.983 191.125 267.534 185.403 266.617 184.171C265.7 182.939 264.462 179.923 262.634 175.62C260.806 171.318 253.186 168.338 253.186 168.338C253.186 168.338 239.408 160.352 235.503 157.749C235.148 157.535 234.817 157.285 234.514 157.002C233.834 156.11 230.87 156.092 230.87 156.092C230.561 154.138 230.263 151.893 230.166 149.86C230.166 149.641 230.166 149.423 230.136 149.204C234.489 146.632 237.769 142.577 239.371 137.784C239.444 137.553 239.505 137.31 239.572 137.08C239.833 136.994 240.073 136.854 240.277 136.671C240.48 136.487 240.644 136.262 240.756 136.012C241.108 135.229 241.114 134.312 241.551 133.584C242.061 132.723 243.033 132.261 243.798 131.612C245.729 129.974 246.227 127.212 246.136 124.7C246.075 122.667 245.747 120.616 245.875 118.595L245.911 118.086C245.948 117.782 245.99 117.479 246.045 117.187C246.342 115.682 246.992 114.262 247.356 112.77C247.721 111.277 247.757 109.596 246.907 108.309C245.662 106.422 243.069 106.046 240.792 105.852C238.212 105.633 235.904 105.918 234.252 103.776C233.479 102.657 232.61 101.607 231.654 100.639C231.314 100.323 228.01 98.3085 228.01 98.175C224.786 96.6827 221.132 96.4026 217.718 97.3861C216.006 97.8837 214.39 98.6969 212.654 99.1035C208.907 99.9895 204.596 99.0306 201.414 101.173C199.641 102.386 198.578 104.316 197.583 106.197C196.773 107.747 195.951 109.294 195.117 110.84C193.775 113.382 192.409 115.968 191.844 118.783C191.726 119.396 191.653 120.017 191.626 120.64V120.671C191.626 120.895 191.626 121.12 191.626 121.344V121.629C191.626 121.842 191.626 122.048 191.662 122.236C191.699 122.424 191.693 122.485 191.711 122.613C191.729 122.74 191.759 123.025 191.796 123.219C191.832 123.414 191.905 123.753 191.978 124.02C192.008 124.136 192.051 124.245 192.087 124.354C192.148 124.561 192.221 124.761 192.3 124.961C192.342 125.064 192.385 125.173 192.433 125.277C192.524 125.489 192.634 125.695 192.743 125.883C192.792 125.968 192.828 126.047 192.877 126.126C193.046 126.408 193.233 126.68 193.435 126.939C194.735 128.56 196.647 129.591 198.062 131.108C198.062 131.169 198.062 131.23 198.062 131.284C198.062 131.454 198.062 131.618 198.062 131.788C198.137 135.171 199.038 138.485 200.687 141.441C202.336 144.397 204.683 146.906 207.523 148.749C207.523 148.98 207.553 149.217 207.565 149.447C207.684 151.248 207.661 153.056 207.498 154.854C207.251 154.563 206.942 154.331 206.593 154.176C206.244 154.02 205.864 153.945 205.483 153.956C205.222 153.943 204.96 153.966 204.705 154.023L204.651 153.98V154.035C203.315 154.363 201.669 155.752 200.096 159.703C200.096 159.703 195.312 165.092 191.668 164.867C188.025 164.642 178.801 170.474 178.801 170.474C178.801 170.474 169.802 176.312 167.871 182.259C166.792 185.631 165.498 188.931 163.997 192.139L152.873 215.047L150.821 233.222C150.821 233.222 151.956 241.305 151.732 242.537C151.507 243.769 156.401 254.88 156.401 254.88C156.401 254.88 172.571 283.274 179.178 284.731L179.651 284.397C179.934 284.544 180.234 284.656 180.544 284.731L181.904 283.772C181.986 284.84 181.951 285.915 181.801 286.976C180.89 289.78 182.141 308.076 183.732 311.662C185.323 315.249 184.758 362.273 184.758 362.273L184.534 366.424C184.534 366.424 184.534 366.557 184.588 366.788L184.534 367.771L184.697 367.856C184.868 369.172 184.812 370.508 184.534 371.806C183.963 373.627 183.732 378.773 183.732 378.773C183.732 378.773 179.184 407.829 181.34 413.666C183.495 419.504 185.329 425.9 185.329 425.9C185.329 425.9 187.606 433.183 185.438 434.427C183.27 435.671 177.107 437.758 178.376 440.792C179.53 443.596 183.908 451.109 184.558 452.207L184.503 452.784L183.611 462.451C183.755 463.727 184.101 464.972 184.637 466.14C185.614 468.246 187.515 470.431 191.128 470.194C191.735 470.151 192.439 470.079 193.12 469.988C199.732 469.102 207.875 466.152 207.875 466.152C207.452 465.884 207.065 465.564 206.721 465.2C206.396 464.885 206.139 464.507 205.964 464.09C205.79 463.673 205.703 463.224 205.707 462.772C205.804 461.012 202.507 452.626 201.687 450.562C201.56 450.265 201.493 450.095 201.493 450.095C201.493 450.095 209.01 442.243 207.76 435.282C207.76 435.282 199.441 430.427 202.179 427.763C204.918 425.099 209.812 417.447 209.812 417.447C209.812 417.447 210.037 388.834 209.812 384.562C209.578 381.597 209.718 378.614 210.231 375.684C210.322 375.241 210.431 374.81 210.547 374.386C214.334 374.951 218.157 375.241 221.987 375.253C223.383 375.253 224.804 375.253 226.237 375.168C226.237 375.573 226.255 376.01 226.292 376.479C226.608 383.567 227.197 395.995 227.676 400.613C228.356 407.234 232.115 425.075 232.115 425.075C232.115 425.075 224.944 429.675 233.366 441.011C233.366 441.011 233.366 445.119 232.807 445.714C232.211 447.658 231.73 449.636 231.368 451.637C231.016 453.773 230.87 455.933 231.441 457.056C232.807 459.738 241.005 459.519 241.005 459.519L241.205 459.483C242.753 459.323 244.317 459.472 245.806 459.921C247.296 460.37 248.681 461.11 249.882 462.099C252.997 464.599 264.82 463.5 271.22 462.705C273.728 462.39 275.404 462.099 275.404 462.099C275.485 461.815 275.514 461.519 275.489 461.225C275.422 459.653 274.189 456.206 265.834 453.129C265.834 453.129 257.976 447.85 258.086 443.25H257.922H257.011C257.673 443.214 258.098 443.25 258.098 443.25C258.098 443.25 255.019 432.023 256.276 431.113C257.533 430.203 253.768 417.763 253.768 417.763C253.768 417.763 251.613 396.887 251.497 395.425C251.502 394.17 251.693 392.922 252.062 391.723L251.497 380.278C251.497 380.278 251.388 376.473 251.497 375.235C251.479 374.161 251.392 373.088 251.236 372.025C251.182 371.6 251.127 371.157 251.066 370.72C254.011 369.974 255.924 369.282 255.924 369.282L255.584 329.443C258.086 324.588 258.547 313.938 258.535 306.383C258.535 301.528 258.317 297.935 258.317 297.935L261.735 292.359C261.735 292.359 262.525 285.683 261.274 284.221C260.721 283.559 260.97 282.874 261.425 282.309C261.662 282.122 261.912 281.951 262.172 281.8C262.172 281.8 262.136 281.745 262.093 281.666C262.332 281.467 262.586 281.286 262.852 281.126C262.852 281.126 261.638 279.245 262.725 278.45C263.745 279.142 264.656 279.663 265.348 280.088C265.3 280.531 265.251 280.786 265.251 280.786L265.542 280.179C266.21 280.556 266.617 280.786 266.617 280.786C266.617 280.786 271.973 270.124 271.857 268.552C271.742 266.98 275.501 260.36 275.501 260.36C275.501 260.36 275.956 256.883 278.009 255.426C280.061 253.97 279.6 243.417 279.6 243.417C279.6 243.417 280.17 237.919 281.537 235.673C282.903 233.428 280.292 230.4 280.292 230.4ZM177.818 225.721L177.921 228.264C177.314 227.287 176.876 226.583 176.876 226.583L177.818 225.721Z" fill="url(#paint0_linear)"/>
<path d="M266.909 276.18L265.597 281.763C265.597 281.763 255.092 276.405 253.198 269.596C251.303 262.787 256.367 260.202 256.367 260.202L266.156 264.347L266.909 276.18Z" fill="white"/>
<path opacity="0.1" d="M266.909 276.18L265.597 281.763C265.597 281.763 255.092 276.405 253.198 269.596C251.303 262.787 256.367 260.202 256.367 260.202L266.156 264.347L266.909 276.18Z" fill="black"/>
<path d="M207.954 466.189C207.954 466.189 198.238 469.757 191.559 470.206C188.013 470.443 186.149 468.27 185.189 466.177C184.665 465.013 184.327 463.774 184.187 462.505L185.056 452.887L185.517 447.765L199.708 444.081L201.718 450.223L201.906 450.69C202.714 452.741 205.95 461.085 205.853 462.827C205.849 463.273 205.935 463.715 206.106 464.127C206.277 464.539 206.53 464.912 206.849 465.224C207.175 465.591 207.546 465.915 207.954 466.189Z" fill="white"/>
<path d="M274.317 461.297C274.341 461.589 274.312 461.883 274.232 462.165C274.232 462.165 253.453 465.63 249.202 462.165C248.004 461.153 246.607 460.402 245.101 459.961C243.595 459.52 242.014 459.399 240.458 459.604C240.458 459.604 232.419 459.823 231.077 457.177C230.518 456.067 230.664 453.912 231.01 451.788C231.363 449.798 231.833 447.831 232.419 445.896L232.741 445.641L234.653 444.106L257.047 443.444H257.217C257.108 448.02 264.82 453.269 264.82 453.269C273.011 456.303 274.22 459.732 274.317 461.297Z" fill="white"/>
<path opacity="0.1" d="M274.317 461.297C274.338 461.59 274.307 461.884 274.226 462.165C274.226 462.165 253.453 465.63 249.202 462.165C248.005 461.154 246.609 460.404 245.104 459.963C243.599 459.522 242.019 459.4 240.464 459.604C240.464 459.604 232.419 459.823 231.083 457.177C230.524 456.06 230.664 453.912 231.01 451.788C234.107 452.098 238.995 452.868 240.914 454.707C243.816 457.505 248.735 460.296 251.753 460.515C254.115 460.666 268.245 461.115 274.317 461.297Z" fill="black"/>
<path opacity="0.1" d="M207.954 466.189C207.954 466.189 198.238 469.757 191.559 470.206C188.013 470.443 186.149 468.27 185.195 466.17C187.667 467.002 191.098 467.876 192.901 467.075C195.038 466.128 202.616 465.515 206.867 465.254C207.19 465.608 207.555 465.922 207.954 466.189Z" fill="black"/>
<path d="M222.369 178.636C214.354 175.523 204.043 165.237 206.618 160.431C207.19 159.218 207.53 157.909 207.62 156.571C207.786 154.756 207.81 152.93 207.693 151.11C207.512 148.13 207.153 145.163 206.618 142.226C206.618 142.226 231.641 142.79 230.184 146.474C229.759 147.554 229.692 149.429 229.808 151.529C229.923 153.628 230.227 156.001 230.542 158.01C230.98 160.765 231.417 162.864 231.417 162.864C231.417 162.864 229.887 165.007 228.988 165.122C228.089 165.237 233.87 183.072 222.369 178.636Z" fill="#CF6F80"/>
<path opacity="0.1" d="M201.888 450.69L201.7 450.896C194.219 441.854 185.171 453.123 185.171 453.123L185.037 452.887L185.499 447.765L199.69 444.081L201.7 450.223L201.888 450.69Z" fill="black"/>
<path opacity="0.1" d="M257.224 444.081C257.224 444.081 251.759 443.966 248.844 446.539C245.929 449.112 231.842 447.097 232.449 446.539C232.629 446.262 232.737 445.945 232.765 445.617L234.678 444.081L257.072 443.42C257.157 443.827 257.224 444.081 257.224 444.081Z" fill="black"/>
<path d="M211.196 373.075C210.789 374.08 210.48 375.123 210.273 376.188C209.767 379.104 209.626 382.072 209.854 385.023C210.079 389.271 209.854 417.738 209.854 417.738C209.854 417.738 205.051 425.33 202.374 428.006C199.696 430.682 207.839 435.488 207.839 435.488C209.053 442.406 201.693 450.223 201.693 450.223C194.213 441.181 185.165 452.456 185.165 452.456C185.165 452.456 180.247 443.96 179.02 440.926C177.793 437.892 183.823 435.792 185.942 434.56C188.061 433.328 185.839 426.064 185.839 426.064C185.839 426.064 184.048 419.698 181.922 413.891C179.797 408.083 184.266 379.173 184.266 379.173C184.266 379.173 184.497 374.04 185.05 372.249C185.328 370.958 185.384 369.628 185.214 368.317C185.177 367.874 185.135 367.504 185.104 367.255C185.074 367.006 185.05 366.891 185.05 366.891L185.135 366.745L188.171 361.09C188.171 361.09 212.654 369.513 211.196 373.075Z" fill="#424B76"/>
<path d="M257.224 443.414C257.224 443.414 251.759 443.299 248.844 445.841C245.929 448.384 231.842 446.4 232.449 445.841C233.056 445.283 233.008 441.15 233.008 441.15C224.743 429.875 231.793 425.3 231.793 425.3C231.793 425.3 228.101 407.549 227.433 400.965C226.966 396.365 226.389 384.004 226.079 376.946C225.946 373.912 225.867 371.825 225.867 371.825L232.619 370.465L233.487 370.289L249.773 367.025C249.773 367.025 250.222 370.059 250.526 372.541C250.677 373.6 250.762 374.668 250.781 375.739C250.672 376.952 250.781 380.751 250.781 380.751L251.334 392.142C250.973 393.337 250.786 394.577 250.781 395.825C250.89 397.276 253.009 418.042 253.009 418.042C253.009 418.042 256.695 430.434 255.438 431.326C254.181 432.218 257.224 443.414 257.224 443.414Z" fill="#424B76"/>
<path opacity="0.1" d="M230.184 146.474C229.759 147.554 229.692 149.429 229.808 151.529C226.456 153.546 222.603 154.577 218.691 154.504C214.779 154.431 210.967 153.257 207.693 151.116C207.513 148.134 207.154 145.165 206.618 142.226C206.618 142.226 231.641 142.778 230.184 146.474Z" fill="black"/>
<path d="M239.857 133.062C239.862 135.249 239.518 137.423 238.837 139.501C237.316 144.158 234.196 148.127 230.03 150.707C225.863 153.288 220.918 154.313 216.068 153.602C211.219 152.891 206.777 150.49 203.527 146.822C200.278 143.155 198.43 138.457 198.311 133.56C198.311 133.39 198.311 133.232 198.311 133.062C198.264 130.306 198.767 127.568 199.79 125.007C200.812 122.447 202.335 120.116 204.269 118.15C206.203 116.184 208.509 114.622 211.053 113.556C213.598 112.49 216.329 111.941 219.087 111.941C221.846 111.941 224.577 112.49 227.121 113.556C229.665 114.622 231.971 116.184 233.905 118.15C235.839 120.116 237.362 122.447 238.385 125.007C239.408 127.568 239.91 130.306 239.863 133.062H239.857Z" fill="#CF6F80"/>
<path opacity="0.1" d="M222.369 178.636C214.354 175.523 204.043 165.237 206.618 160.431C207.19 159.218 207.53 157.909 207.62 156.571L218.592 165.583L225.381 171.148L230.542 158.016C230.98 160.771 231.417 162.87 231.417 162.87C231.417 162.87 229.887 165.013 228.988 165.128C228.089 165.243 233.87 183.072 222.369 178.636Z" fill="black"/>
<path d="M250.745 218.463L241.582 372.298L229.632 373.081L198.688 283.881L203.764 177.981L204.833 155.607L218.592 166.9L225.387 172.465L230.7 158.95L240.58 167.555L250.745 218.463Z" fill="#424B76"/>
<path opacity="0.1" d="M211.196 373.075C210.789 374.08 210.48 375.123 210.273 376.188C201.578 374.846 193.133 372.209 185.22 368.366L185.056 368.281L185.11 367.304L185.141 366.794L188.177 361.138C188.177 361.138 212.654 369.513 211.196 373.075Z" fill="black"/>
<path opacity="0.1" d="M232.759 376.212C230.536 376.59 228.294 376.845 226.043 376.977C225.909 373.943 225.83 371.855 225.83 371.855L232.583 370.496L232.759 376.212Z" fill="black"/>
<path opacity="0.1" d="M250.49 372.571C246.172 373.694 239.505 374.956 233.536 374.167L233.451 370.32L249.737 367.055C249.737 367.055 250.186 370.059 250.49 372.571Z" fill="black"/>
<path opacity="0.1" d="M233.427 374.871C208.531 379.119 185.73 366.939 185.73 366.939L185.948 362.813C185.948 362.813 186.513 316.031 184.946 312.445C183.38 308.859 182.159 290.672 183.046 287.88C183.932 285.089 179.809 243.229 179.809 243.229L179.141 226.237L154.695 216.339L165.625 193.571C167.101 190.378 168.371 187.095 169.426 183.74C171.327 177.829 180.149 172.022 180.149 172.022C180.149 172.022 189.197 166.22 192.773 166.439C196.35 166.657 201.038 161.305 201.038 161.305C204.499 152.487 207.632 156.48 207.632 156.48C207.632 156.899 207.632 156.48 207.462 157.785C206.248 167.464 227.099 198.049 227.397 198.589L229.383 246.93L231.393 308.106L233.427 374.871Z" fill="black"/>
<path d="M232.759 374.871C207.863 379.119 185.056 366.94 185.056 366.94L185.28 362.813C185.28 362.813 185.845 316.031 184.272 312.445C182.7 308.859 181.485 290.672 182.378 287.88C183.27 285.089 179.141 243.229 179.141 243.229L178.467 226.237L154.009 216.303L164.939 193.534C166.412 190.341 167.681 187.057 168.74 183.703C170.634 177.793 179.463 171.985 179.463 171.985C179.463 171.985 188.511 166.184 192.081 166.402C195.652 166.621 200.345 161.268 200.345 161.268C203.813 152.451 207.632 156.444 207.632 156.444C207.632 156.863 207.268 157.051 207.462 157.749C210.134 167.137 226.432 198.013 226.729 198.553L228.739 246.894L230.749 308.07L232.759 374.871Z" fill="white"/>
<path opacity="0.1" d="M226.049 199.93C223.371 198.814 209.187 182.629 209.187 182.629V178.946C208.67 177.732 205.604 178.472 203.114 179.322L204.183 156.948L205.398 157.955C208.057 167.337 225.739 199.39 226.049 199.93Z" fill="black"/>
<path d="M226.723 198.589C224.039 197.473 209.854 181.288 209.854 181.288V177.605C209.338 176.391 206.272 177.131 203.782 177.981L204.857 155.607L206.072 156.614C208.737 165.996 226.425 198.055 226.723 198.589Z" fill="white"/>
<path opacity="0.1" d="M185.73 279.305C186.064 279.305 203.041 277.521 203.041 277.521C203.041 277.521 213.322 297.723 212.648 302.639C211.974 307.554 210.753 311.905 206.618 311.134C202.483 310.364 184.363 311.741 184.363 311.741L185.73 279.305Z" fill="black"/>
<path d="M185.056 277.964C185.39 277.964 202.367 276.18 202.367 276.18C202.367 276.18 212.642 296.388 211.974 301.297C211.306 306.207 210.073 310.564 205.944 309.793C201.815 309.022 183.689 310.4 183.689 310.4L185.056 277.964Z" fill="white"/>
<path d="M197.85 268.479C197.85 268.479 213.431 276.848 213.765 279.402C214.099 281.957 205.835 278.286 204.049 277.843C202.874 277.56 201.678 277.373 200.473 277.285L188.565 277.606L197.85 268.479Z" fill="#CF6F80"/>
<path opacity="0.1" d="M221.701 200.974C222.607 200.974 223.341 200.241 223.341 199.336C223.341 198.431 222.607 197.697 221.701 197.697C220.796 197.697 220.062 198.431 220.062 199.336C220.062 200.241 220.796 200.974 221.701 200.974Z" fill="black"/>
<path d="M221.701 200.307C222.607 200.307 223.341 199.573 223.341 198.668C223.341 197.763 222.607 197.03 221.701 197.03C220.796 197.03 220.062 197.763 220.062 198.668C220.062 199.573 220.796 200.307 221.701 200.307Z" fill="#3F3D56"/>
<path opacity="0.1" d="M224.719 271.902C225.625 271.902 226.359 271.168 226.359 270.263C226.359 269.359 225.625 268.625 224.719 268.625C223.814 268.625 223.08 269.359 223.08 270.263C223.08 271.168 223.814 271.902 224.719 271.902Z" fill="black"/>
<path d="M224.719 271.228C225.625 271.228 226.359 270.495 226.359 269.59C226.359 268.685 225.625 267.951 224.719 267.951C223.814 267.951 223.08 268.685 223.08 269.59C223.08 270.495 223.814 271.228 224.719 271.228Z" fill="#3F3D56"/>
<path opacity="0.1" d="M223.335 236.438C224.24 236.438 224.974 235.704 224.974 234.8C224.974 233.895 224.24 233.161 223.335 233.161C222.429 233.161 221.695 233.895 221.695 234.8C221.695 235.704 222.429 236.438 223.335 236.438Z" fill="black"/>
<path d="M223.335 235.77C224.24 235.77 224.974 235.037 224.974 234.132C224.974 233.227 224.24 232.494 223.335 232.494C222.429 232.494 221.695 233.227 221.695 234.132C221.695 235.037 222.429 235.77 223.335 235.77Z" fill="#3F3D56"/>
<path d="M261.128 276.945C261.128 276.945 262.245 278.62 261.128 279.402C260.011 280.185 261.237 282.079 261.237 282.079C261.237 282.079 258.45 283.711 259.677 285.18C260.903 286.648 260.126 293.281 260.126 293.281L256.774 298.828C256.774 298.828 256.975 302.402 256.987 307.232C256.987 314.769 256.543 325.365 254.09 330.195L254.43 369.828C254.43 369.828 242.693 374.112 232.868 372.808L231.411 309.211C231.411 309.211 233.536 273.146 234.319 266.228C234.778 262.636 234.964 259.015 234.878 255.396C234.878 255.396 234.544 244.57 233.421 239.545C233.421 239.545 232.206 217.778 232.085 211.752C232.03 208.869 232.182 200.458 232.352 192.46C232.54 183.716 232.753 175.469 232.753 175.469L230.536 157.943C230.536 157.943 232.753 157.718 233.421 158.61C233.72 158.89 234.045 159.14 234.392 159.357C238.218 161.942 251.734 169.892 251.734 169.892C251.734 169.892 259.215 172.865 261.006 177.125C262.798 181.385 264.043 184.407 264.911 185.621C265.779 186.835 266.253 192.539 266.253 192.539C266.253 192.539 268.827 203.037 270.837 204.815C272.847 206.594 274.317 217.905 274.317 217.905L256.556 231.862C256.556 231.862 254.995 255.08 254.661 255.978C254.327 256.876 261.128 276.945 261.128 276.945Z" fill="white"/>
<path d="M261.802 276.945C261.802 276.945 262.913 278.62 261.802 279.402C260.691 280.185 261.905 282.079 261.905 282.079C261.905 282.079 259.136 283.729 260.351 285.198C261.565 286.666 260.8 293.299 260.8 293.299L257.448 298.846C257.448 298.846 257.649 302.42 257.667 307.25C257.667 314.787 257.224 325.383 254.77 330.213L255.104 369.846C255.104 369.846 243.349 374.131 233.536 372.826L232.085 309.229C232.085 309.229 234.21 273.164 234.993 266.246C235.452 262.655 235.637 259.033 235.546 255.414C235.546 255.414 235.212 244.588 234.095 239.563C234.095 239.563 232.88 217.796 232.753 211.77C232.698 208.887 232.856 200.477 233.02 192.478C233.208 183.734 233.421 175.487 233.421 175.487L230.494 157.724C230.494 157.724 233.421 157.724 234.095 158.629C234.391 158.911 234.717 159.161 235.066 159.375C238.892 161.96 252.414 169.91 252.414 169.91C252.414 169.91 259.889 172.883 261.681 177.143C263.472 181.403 264.717 184.426 265.591 185.639C266.465 186.853 266.927 192.557 266.927 192.557C266.927 192.557 269.501 203.056 271.511 204.834C273.521 206.612 274.973 217.899 274.973 217.899L257.211 231.856C257.211 231.856 255.651 255.074 255.311 255.972C254.971 256.87 261.802 276.945 261.802 276.945Z" fill="white"/>
<path opacity="0.1" d="M240.531 180.639L242.134 185.312L233.694 193.807C233.882 185.069 234.095 176.816 234.095 176.816L231.168 159.053C231.168 159.053 234.095 159.053 234.769 159.958C235.064 160.239 235.39 160.488 235.74 160.698L242.917 181.391L240.531 180.639Z" fill="black"/>
<path d="M239.857 179.298L241.466 183.97L233.026 192.466C233.214 183.722 233.427 175.475 233.427 175.475L230.494 157.712C230.494 157.712 233.427 157.712 234.095 158.617C234.392 158.897 234.718 159.148 235.066 159.363L242.25 180.05L239.857 179.298Z" fill="white"/>
<path opacity="0.1" d="M239.857 133.062C239.862 135.249 239.518 137.423 238.837 139.501C238.722 139.519 238.605 139.514 238.492 139.485C238.38 139.457 238.274 139.407 238.181 139.337C238.023 133.876 235.333 128.748 232.024 124.385C231.095 123.067 229.968 121.901 228.684 120.926C227.386 119.951 225.771 119.495 224.154 119.645C222.333 119.894 220.724 121.132 218.884 121.29C216.455 121.49 214.281 119.809 211.87 119.724C210.89 119.733 209.924 119.951 209.035 120.364C208.146 120.776 207.355 121.373 206.715 122.115C205.449 123.612 204.508 125.356 203.952 127.237C202.998 130.088 202.478 133.066 202.41 136.072C202.38 137.771 202.216 139.902 200.637 140.52C200.756 139.271 200.614 138.01 200.22 136.818C199.826 135.626 199.188 134.529 198.348 133.596L198.311 133.56C198.311 133.39 198.311 133.232 198.311 133.062C198.264 130.306 198.767 127.568 199.79 125.007C200.812 122.447 202.335 120.116 204.269 118.15C206.203 116.184 208.509 114.622 211.053 113.556C213.598 112.49 216.329 111.941 219.087 111.941C221.846 111.941 224.577 112.49 227.121 113.556C229.665 114.622 231.971 116.184 233.905 118.15C235.839 120.116 237.362 122.447 238.385 125.007C239.408 127.568 239.91 130.306 239.863 133.062H239.857Z" fill="black"/>
<path d="M227.688 100.093C224.533 98.6093 220.944 98.3287 217.597 99.3037C215.915 99.8013 214.33 100.608 212.623 101.015C208.98 101.895 204.73 100.942 201.602 103.072C199.866 104.286 198.821 106.204 197.85 108.067L195.421 112.691C194.097 115.221 192.761 117.794 192.209 120.58C191.656 123.365 191.99 126.484 193.757 128.723C195.044 130.356 196.945 131.381 198.342 132.917C199.178 133.851 199.813 134.947 200.206 136.138C200.599 137.328 200.741 138.587 200.625 139.835C202.21 139.228 202.361 137.092 202.398 135.393C202.466 132.387 202.985 129.408 203.94 126.557C204.494 124.676 205.435 122.932 206.703 121.435C207.343 120.694 208.134 120.097 209.023 119.685C209.912 119.273 210.878 119.054 211.858 119.044C214.287 119.129 216.467 120.804 218.872 120.604C220.693 120.452 222.309 119.208 224.142 118.965C225.759 118.813 227.375 119.269 228.672 120.246C229.956 121.219 231.081 122.386 232.006 123.705C235.321 128.068 238.011 133.184 238.169 138.657C238.855 139.161 239.845 138.506 240.185 137.729C240.525 136.952 240.537 136.042 240.968 135.302C241.466 134.446 242.42 133.991 243.166 133.348C245.061 131.715 245.535 128.966 245.462 126.472C245.389 123.978 244.903 121.447 245.377 118.996C245.662 117.491 246.306 116.083 246.658 114.596C247.01 113.109 247.053 111.441 246.221 110.16C245.006 108.279 242.45 107.909 240.221 107.733C237.689 107.514 235.424 107.793 233.809 105.663C233.051 104.552 232.198 103.508 231.259 102.544C230.937 102.229 227.688 100.226 227.688 100.093Z" fill="#512E4E"/>
<path opacity="0.1" d="M161.69 228.064L155.345 216.339L153.335 234.429C153.335 234.429 154.452 242.464 154.227 243.696C154.003 244.928 158.806 255.972 158.806 255.972C158.806 255.972 174.672 284.215 181.151 285.671L203.041 270.039L197.236 262.672C197.236 262.672 195.227 261.889 194.723 262.672C194.723 262.672 183.944 244.139 182.827 242.798C181.71 241.457 181.929 238.78 181.929 238.78C181.929 238.78 180.253 236.996 180.811 235.321C181.37 233.647 177.575 227.839 177.575 227.839L181.036 224.605L161.69 228.064Z" fill="black"/>
<path d="M155.678 215.004L154.003 216.339L151.993 234.429C151.993 234.429 153.11 242.464 152.885 243.696C152.661 244.928 157.47 255.972 157.47 255.972C157.47 255.972 173.33 284.215 179.809 285.671L201.706 270.039L195.895 262.672C195.895 262.672 193.885 261.889 193.381 262.672C193.381 262.672 182.603 244.139 181.485 242.798C180.368 241.457 180.593 238.78 180.593 238.78C180.593 238.78 178.917 236.996 179.475 235.321C180.034 233.647 176.233 227.839 176.233 227.839L179.694 224.605L155.678 215.004Z" fill="white"/>
<path opacity="0.1" d="M259.677 285.871C260.891 287.346 260.126 293.967 260.126 293.967L256.774 299.513C256.774 299.513 256.975 303.094 256.987 307.918L251.352 309.678C250.842 309.837 250.303 309.872 249.777 309.78C249.252 309.688 248.756 309.472 248.331 309.149C247.906 308.827 247.564 308.407 247.335 307.926C247.105 307.445 246.994 306.916 247.01 306.383L247.982 275.064L261.128 280.088C260.011 280.865 261.237 282.77 261.237 282.77C261.237 282.77 258.45 284.397 259.677 285.871Z" fill="black"/>
<path d="M260.351 285.198C261.565 286.672 260.8 293.299 260.8 293.299L257.448 298.846C257.448 298.846 257.649 302.42 257.667 307.251L251.929 309.041C251.43 309.196 250.901 309.229 250.387 309.139C249.873 309.048 249.387 308.836 248.971 308.52C248.556 308.205 248.221 307.794 247.996 307.323C247.771 306.852 247.662 306.334 247.678 305.812L248.656 274.396L261.808 279.421C260.685 280.197 261.911 282.097 261.911 282.097C261.911 282.097 259.136 283.729 260.351 285.198Z" fill="white"/>
<path d="M264.704 270.27C264.704 270.27 263.812 275.968 261.577 276.302C259.343 276.635 258.341 285.519 256.112 285.204C253.884 284.888 255.359 276.945 255.438 275.403C255.517 273.862 253.009 267.478 254.886 266.028C256.762 264.577 262.701 266.028 262.701 266.028L264.704 270.27Z" fill="#CF6F80"/>
<path opacity="0.1" d="M269.459 226.389L273.673 217.893C273.673 217.893 275.349 224.368 275.349 227.827C275.349 231.286 277.693 231.626 277.693 231.626C277.693 231.626 280.261 234.66 278.907 236.869C277.553 239.078 277.007 244.576 277.007 244.576C277.007 244.576 277.45 255.068 275.44 256.518C273.43 257.969 273.011 261.434 273.011 261.434C273.011 261.434 269.319 268.018 269.435 269.584C269.55 271.149 264.298 281.751 264.298 281.751C264.298 281.751 266.866 268.576 251.898 262.884C251.898 262.884 251.783 258.412 252.9 257.186C254.017 255.96 255.76 255.402 254.667 249.206C253.574 243.01 254.351 235.607 254.351 234.12C254.351 232.633 257.703 223.361 257.703 223.361L269.459 226.389Z" fill="black"/>
<path d="M271.281 216.679L274.96 217.893C274.96 217.893 276.642 224.368 276.642 227.827C276.642 231.286 278.986 231.626 278.986 231.626C278.986 231.626 281.555 234.66 280.201 236.869C278.847 239.078 278.306 244.576 278.306 244.576C278.306 244.576 278.749 255.068 276.74 256.518C274.73 257.969 274.28 261.434 274.28 261.434C274.28 261.434 270.594 268.018 270.71 269.584C270.825 271.149 265.567 281.751 265.567 281.751C265.567 281.751 268.141 268.576 253.167 262.884C253.167 262.884 253.058 258.412 254.175 257.186C255.293 255.96 257.035 255.402 255.942 249.206C254.849 243.01 255.627 235.607 255.627 234.12C255.627 232.633 258.978 223.361 258.978 223.361L271.281 216.679Z" fill="white"/>
<path opacity="0.1" d="M190.005 436.884C190.005 436.884 195.87 433.201 199.72 435.877C203.57 438.553 190.005 436.884 190.005 436.884Z" fill="black"/>
<path opacity="0.1" d="M235.582 425.494C235.582 425.494 240.774 424.826 245.134 429.517C249.494 434.208 235.582 425.494 235.582 425.494Z" fill="black"/>
<g opacity="0.1">
<path opacity="0.1" d="M243.179 132.019C242.432 132.662 241.472 133.123 240.974 133.979C240.549 134.713 240.537 135.617 240.197 136.406C239.857 137.195 238.867 137.838 238.181 137.341C238.023 131.879 235.327 126.751 232.018 122.382C231.093 121.063 229.968 119.896 228.684 118.923C227.385 117.946 225.767 117.49 224.148 117.643C222.327 117.891 220.724 119.129 218.884 119.281C216.455 119.487 214.275 117.806 211.864 117.721C210.885 117.731 209.918 117.95 209.03 118.363C208.142 118.777 207.353 119.375 206.715 120.118C205.448 121.613 204.506 123.355 203.952 125.234C202.998 128.085 202.478 131.064 202.41 134.07C202.374 135.763 202.216 137.875 200.649 138.506C200.686 138.954 200.686 139.405 200.649 139.853C202.228 139.246 202.386 137.11 202.422 135.411C202.49 132.405 203.01 129.426 203.964 126.575C204.519 124.694 205.46 122.95 206.727 121.453C207.366 120.712 208.156 120.116 209.044 119.703C209.932 119.291 210.898 119.073 211.877 119.063C214.305 119.147 216.491 120.822 218.896 120.622C220.718 120.47 222.333 119.226 224.161 118.984C225.779 118.831 227.397 119.288 228.696 120.264C229.98 121.238 231.105 122.404 232.03 123.723C235.339 128.086 238.035 133.202 238.193 138.676C238.879 139.179 239.869 138.524 240.209 137.747C240.549 136.97 240.561 136.06 240.987 135.32C241.484 134.464 242.444 134.009 243.191 133.366C245.085 131.733 245.559 128.984 245.486 126.49C245.486 126.411 245.486 126.332 245.486 126.26C245.371 128.42 244.794 130.623 243.179 132.019Z" fill="black"/>
<path opacity="0.1" d="M198.354 131.588C196.957 130.052 195.051 129.027 193.769 127.401C192.69 125.961 192.074 124.228 192.002 122.431C191.811 124.676 192.439 126.916 193.769 128.736C195.051 130.368 196.957 131.394 198.354 132.929C199.695 134.431 200.5 136.334 200.643 138.342C200.736 137.12 200.581 135.892 200.188 134.731C199.794 133.571 199.171 132.502 198.354 131.588Z" fill="black"/>
<path opacity="0.1" d="M246.67 113.267C246.312 114.754 245.674 116.168 245.383 117.667C245.21 118.668 245.147 119.686 245.195 120.701C245.215 120.123 245.278 119.547 245.383 118.978C245.674 117.473 246.312 116.065 246.67 114.578C246.879 113.758 246.947 112.908 246.87 112.066C246.833 112.47 246.766 112.872 246.67 113.267Z" fill="black"/>
</g>
<path opacity="0.1" d="M80.596 461.558C113.273 461.558 139.763 457.306 139.763 452.061C139.763 446.816 113.273 442.564 80.596 442.564C47.9188 442.564 21.4287 446.816 21.4287 452.061C21.4287 457.306 47.9188 461.558 80.596 461.558Z" fill="#424B76"/>
<path d="M82.5027 270.13H78.6954V355.798H82.5027V270.13Z" fill="#535461"/>
<path d="M106.427 355.537L106.19 359.396L105.85 364.858L105.711 367.128L105.377 372.589L105.231 374.859L104.891 380.32L101.053 442.261C100.886 444.926 99.7097 447.427 97.7627 449.256C95.8156 451.084 93.2445 452.103 90.5726 452.104H70.6194C67.9482 452.103 65.3778 451.084 63.4317 449.255C61.4856 447.427 60.3102 444.925 60.1449 442.261L56.3255 380.278L55.9855 374.816L55.8458 372.547L55.5058 367.085L55.3661 364.816L55.0261 359.354L54.7832 355.495C54.741 354.752 54.8511 354.008 55.1068 353.309C55.3625 352.611 55.7584 351.971 56.2701 351.431C56.7818 350.891 57.3987 350.46 58.0827 350.167C58.7668 349.873 59.5037 349.722 60.2482 349.723H101.059C101.801 349.73 102.533 349.888 103.212 350.188C103.89 350.489 104.499 350.925 105.002 351.469C105.505 352.014 105.891 352.656 106.136 353.356C106.381 354.055 106.48 354.798 106.427 355.537Z" fill="#3F3D56"/>
<path d="M106.19 359.396L105.85 364.84H55.3418L55.0018 359.396H106.19Z" fill="#9D9CB5"/>
<path d="M105.711 367.109L105.377 372.559H55.8215L55.4815 367.109H105.711Z" fill="#9D9CB5"/>
<path d="M105.231 374.835L104.897 380.278H56.3012L55.9612 374.835H105.231Z" fill="#9D9CB5"/>
<path d="M49.1907 302.238C71.3602 318.271 80.6142 343.345 80.6142 343.345C80.6142 343.345 53.8967 342.429 31.7211 326.396C9.54547 310.364 0.30968 285.295 0.30968 285.295C0.30968 285.295 27.0151 286.205 49.1907 302.238Z" fill="#424B76"/>
<path d="M0.291465 285.295C0.291465 285.295 28.0292 300.678 36.9249 313.416C45.8207 326.154 80.6142 343.345 80.6142 343.345" stroke="#535461" stroke-width="2" stroke-miterlimit="10"/>
<path d="M63.5028 269.942C75.5683 278.662 80.6142 292.31 80.6142 292.31C80.6142 292.31 66.0714 291.812 53.9999 283.092C41.9284 274.372 36.8946 260.718 36.8946 260.718C36.8946 260.718 51.4314 261.215 63.5028 269.942Z" fill="#424B76"/>
<path d="M36.8946 260.718C36.8946 260.718 51.99 269.092 56.8295 276.022C61.669 282.953 80.6142 292.31 80.6142 292.31" stroke="#535461" stroke-width="2" stroke-miterlimit="10"/>
<path d="M98.1325 291.618C84.2697 306.844 81.3368 326.742 81.3368 326.742C81.3368 326.742 100.883 321.948 114.734 306.716C128.584 291.485 131.529 271.592 131.529 271.592C131.529 271.592 111.995 276.393 98.1325 291.618Z" fill="#424B76"/>
<path d="M131.542 271.598C131.542 271.598 113.483 287.206 108.892 297.96C104.302 308.713 81.3368 326.742 81.3368 326.742" stroke="#535461" stroke-width="2" stroke-miterlimit="10"/>
<path d="M607.017 286.26C607.017 286.26 596.992 236.414 600.83 230.212C600.83 230.212 600.97 224.447 600.739 217.098C600.739 216.819 600.739 216.54 600.739 216.254C601.414 216.704 602.118 217.11 602.846 217.468C606.382 219.284 610.441 219.807 614.322 218.949L611.286 215.569C610.558 214.762 609.799 213.888 609.641 212.82C609.483 211.752 609.92 210.799 610.296 209.846C613.181 202.564 613.333 193.407 607.777 187.848C603.083 183.175 601.941 177.143 596.847 172.877C593.124 169.752 591.078 165.17 589.147 160.74C587.514 156.996 585.868 153.222 584.933 149.253C584.204 146.152 583.913 142.942 582.911 139.914C581.909 136.885 580.033 133.942 577.1 132.589C576.055 132.11 574.896 131.837 573.942 131.199C572.691 130.356 571.938 128.984 571.034 127.783C566.437 121.714 551.044 125.289 543.757 127.753C541.777 128.373 539.942 129.389 538.365 130.738L538.432 130.629C538.487 130.538 538.554 130.447 538.614 130.356C537.817 131 537.128 131.769 536.574 132.632C535.511 134.312 535.068 136.273 534.182 138.093C533.113 140.247 527.168 146.261 529.725 148.683C529.904 148.845 530.109 148.976 530.332 149.071C531.292 149.47 532.348 149.576 533.368 149.374L533.259 149.635C532.386 151.772 531.938 154.058 531.941 156.365C531.941 166.336 540.169 174.419 550.328 174.419C552.237 174.421 554.136 174.128 555.957 173.551C555.999 173.782 556.035 174.012 556.078 174.243C556.078 174.334 556.108 174.425 556.12 174.516L555.799 174.965C555.783 174.937 555.764 174.911 555.744 174.886L546.211 188.2C544.753 189.226 536.362 195.294 535.888 199.845C535.39 204.828 534.892 210.659 534.892 210.659L534.825 211.909C534.409 212.257 533.921 212.511 533.397 212.652C532.873 212.794 532.324 212.82 531.789 212.729C528.814 212.243 528.814 223.652 528.814 223.652C528.814 223.652 526.834 225.472 525.474 223.895C524.114 222.317 520.519 227.663 520.519 227.663L497.991 228.634L497.475 228.664L496.261 224.908C496.13 224.512 495.848 224.183 495.477 223.993C495.105 223.804 494.673 223.768 494.275 223.895C494.181 223.926 494.09 223.964 494.002 224.01L493.917 224.058L493.759 224.168L493.68 224.24C493.637 224.28 493.596 224.323 493.559 224.368L493.486 224.453L493.45 224.489C493.309 224.683 493.216 224.907 493.178 225.143C493.141 225.379 493.158 225.621 493.231 225.849L494.275 229.071C489.928 229.945 485.483 232.409 489.108 239.193L470.733 235.801L476.678 240.789L507.367 247.118C506.96 247.847 507.227 248.903 508.496 250.389C513.961 256.804 523.92 258.545 527.927 258.994C528.986 261.36 530.308 263.6 531.868 265.67L531.522 272.06C531.522 272.06 521.375 320.765 519.517 323.235C520.455 322.173 521.314 321.043 522.086 319.855C519.141 329.861 515.024 343.558 513.943 345.609C512.206 348.886 510.597 362.145 512.577 362.995C513.184 363.256 514.921 363.129 517.398 362.94V364.039L517.289 405.662C517.289 405.662 517.787 431.192 516.421 433.625C515.054 436.059 514.69 441.162 514.69 441.162C514.69 441.162 509.225 451.23 504.896 455.278C504.866 455.309 504.834 455.338 504.798 455.363L504.665 454.416C504.665 454.416 499.461 460.982 487.948 460.612C487.948 460.612 481.02 465.115 491.294 465.357C501.568 465.6 514.69 464.993 514.69 464.993C514.69 464.993 523.853 451.036 531.528 452.856V463.434H533.878V452.686C534.968 451.969 535.901 451.039 536.62 449.951C537.339 448.863 537.829 447.64 538.062 446.357C538.263 445.034 538.116 443.682 537.634 442.434C537.153 441.186 536.354 440.084 535.317 439.239C534.851 438.818 534.477 438.305 534.219 437.733C533.961 437.16 533.824 436.541 533.817 435.913L533.732 435.986C533.732 435.774 533.678 435.555 533.653 435.331C532.979 429.869 532.135 418.6 535.117 410.262C539.203 398.829 540.442 382.906 537.467 373.427C536.507 370.397 535.718 367.315 535.105 364.197C535.032 363.802 534.965 363.426 534.904 363.074C536.938 363.349 538.952 363.754 540.934 364.288C547.826 366.187 562.903 366.539 575.776 366.436C575.806 366.788 575.843 367.158 575.885 367.528C576.115 370.101 576.595 372.646 577.318 375.126C578.934 379.981 579.674 401.384 579.674 401.384C579.674 401.384 581.757 418.982 580.622 426.143C580.014 430.124 579.407 434.123 579.061 438.14V438.219C579.061 438.219 575.649 447.929 573.153 453.202C573.092 453.336 573.025 453.469 572.965 453.597C572.299 453.657 571.644 453.802 571.016 454.028C571.016 454.028 567.67 460.703 564.336 461.807C561.002 462.912 562.108 466.547 569.655 465.212C577.203 463.877 588.601 462.784 588.601 462.784L589.092 455.976L591.412 453.075L590.805 459.865L593.276 459.38L592.948 451.121L596.743 446.375C596.743 446.375 601.328 442.297 594.515 434.275V434.451C594.442 434.335 594.375 434.214 594.296 434.099V434.062C593.167 432.315 592.268 429.056 593.914 423.273C596.889 412.823 598.62 403.338 598.62 403.338C598.62 403.338 605.263 377.929 597.278 365.908H597.63C596.812 364.216 596.233 362.419 595.911 360.568C595.871 360.349 595.834 360.125 595.802 359.894C601.71 359.554 607.509 358.486 612.24 356.18C612.221 356.156 609.373 295.86 607.017 286.26ZM532.008 244.206V244.327L530.793 244.388L532.008 244.206ZM527.842 244.782C527.643 244.826 527.456 244.916 527.296 245.043C526.774 245.781 526.446 246.639 526.342 247.537L524.448 247.112C524.448 247.112 523.118 246.827 521.205 246.506L520.301 245.595C522.79 245.389 525.377 245.086 527.842 244.782Z" fill="url(#paint1_linear)"/>
<path d="M590.525 451.206L589.803 459.805L592.226 459.319L591.861 449.992L590.525 451.206Z" fill="#1D2366"/>
<path d="M535.25 410.377C532.33 418.691 533.155 429.912 533.811 435.361C534.054 437.376 534.279 438.602 534.279 438.602C534.279 438.602 529.913 448.542 529.549 448.918C529.184 449.294 516.7 456.91 516.7 456.91L507.974 462.001C507.974 462.001 499.121 458.124 503.365 456.789C504.233 456.441 505.014 455.909 505.655 455.229C509.905 451.194 515.243 441.162 515.243 441.162C515.243 441.162 515.607 436.071 516.943 433.65C518.279 431.228 517.793 405.784 517.793 405.784L517.896 364.306V358.899L534.503 359.02C534.608 360.856 534.848 362.681 535.22 364.482C535.816 367.59 536.588 370.661 537.533 373.682C540.46 383.142 539.246 398.987 535.25 410.377Z" fill="#FFB0B1"/>
<path opacity="0.1" d="M534.279 438.602C534.279 438.602 529.913 448.542 529.549 448.918C529.184 449.294 516.7 456.91 516.7 456.91L507.974 462.001C507.974 462.001 499.121 458.124 503.365 456.789C504.233 456.441 505.014 455.909 505.655 455.229L506.031 457.881L508.94 457.76L533.836 435.373C534.054 437.376 534.279 438.602 534.279 438.602Z" fill="black"/>
<path d="M533.975 435.938L508.94 458.476L506.031 458.597L505.424 454.349C505.424 454.349 500.335 460.891 489.029 460.527C489.029 460.527 482.24 465.011 492.302 465.254C502.363 465.497 515.212 464.89 515.212 464.89C515.212 464.89 524.187 450.933 531.698 452.753V463.294H534.006V452.656C535.078 451.934 535.994 451.003 536.697 449.919C537.401 448.834 537.877 447.618 538.098 446.345C538.298 445.033 538.157 443.692 537.688 442.451C537.219 441.209 536.438 440.109 535.42 439.257C534.966 438.831 534.603 438.317 534.355 437.746C534.106 437.176 533.977 436.56 533.975 435.938Z" fill="#1D2366"/>
<path d="M592.833 423.34C591.218 429.105 592.098 432.351 593.203 434.093V434.129C594.621 436.28 595.606 438.685 596.106 441.211L596.203 441.757L584.811 458.354L578.63 460.782C578.63 460.782 568.69 457.389 570.505 456.419C570.961 456.182 571.671 454.92 572.485 453.178C574.914 447.929 578.266 438.244 578.266 438.244V438.165C578.618 434.166 579.176 430.179 579.796 426.21C580.907 419.067 578.867 401.536 578.867 401.536C578.867 401.536 578.138 380.217 576.559 375.369C575.847 372.903 575.373 370.375 575.145 367.819C574.817 364.785 574.744 362.285 574.744 362.285C574.744 362.285 581.29 353.182 593.288 363.013C594.248 363.797 595.092 364.713 595.796 365.732C604.085 377.517 597.411 403.478 597.411 403.478C597.411 403.478 595.741 412.92 592.833 423.34Z" fill="#FFB0B1"/>
<path opacity="0.1" d="M596.221 441.757L584.83 458.354L578.648 460.782C578.648 460.782 568.708 457.389 570.524 456.419C570.979 456.182 571.69 454.92 572.503 453.178C576.711 453.142 578.891 457.147 578.891 457.147L584.222 456.297C584.222 456.297 591.254 442.485 592.833 441.642C594.412 440.798 593.076 435.337 593.076 435.337V433.947C593.118 433.996 593.155 434.05 593.203 434.099V434.135C594.621 436.286 595.606 438.691 596.106 441.217L596.221 441.757Z" fill="black"/>
<path d="M579.255 457.505C579.255 457.505 576.219 451.934 570.402 453.991C570.402 453.991 567.129 460.666 563.856 461.747C560.583 462.827 561.676 466.468 569.072 465.139C576.468 463.81 587.617 462.711 587.617 462.711L588.103 455.921L595.62 446.351C595.62 446.351 600.101 442.291 593.434 434.299V435.689C593.434 435.689 594.77 441.15 593.191 441.994C591.612 442.837 584.605 456.655 584.605 456.655L579.255 457.505Z" fill="#1D2366"/>
<path opacity="0.1" d="M534.522 359.008C534.626 360.844 534.866 362.669 535.238 364.47C528.401 363.468 522.056 363.966 517.896 364.294V358.887L534.522 359.008Z" fill="black"/>
<path opacity="0.1" d="M596.47 367.243C596.47 367.243 586.755 367.716 575.169 367.813C574.841 364.779 574.768 362.279 574.768 362.279C574.768 362.279 581.314 353.176 593.313 363.007C594.272 363.791 595.116 364.706 595.82 365.726C596.009 366.243 596.225 366.75 596.47 367.243Z" fill="black"/>
<path d="M596.47 366.151C596.47 366.151 553.916 368.208 540.946 364.573C527.976 360.938 515.121 364.087 513.184 363.244C511.247 362.4 512.82 349.189 514.52 345.918C516.22 342.648 525.547 309.569 525.547 309.569L534.522 262.805L543.976 260.202L544.644 260.014L561.118 255.475L573.189 252.143C573.189 252.143 597.193 345.797 595.134 352.703C594.387 355.347 594.266 358.13 594.782 360.829C595.097 362.672 595.665 364.463 596.47 366.151Z" fill="#1D2366"/>
<path d="M503.238 230.825C503.238 230.825 494.737 239.927 501.173 245.001C507.61 250.074 511.842 245.486 511.842 245.486L503.238 230.825Z" fill="#C7DAF5"/>
<path opacity="0.1" d="M503.238 230.825C503.238 230.825 494.737 239.927 501.173 245.001C507.61 250.074 511.842 245.486 511.842 245.486L503.238 230.825Z" fill="black"/>
<path d="M571.92 170.978C571.92 170.978 570.924 171.925 569.425 173.32C567.287 175.317 564.124 178.236 561.318 180.681C557.432 184.061 554.226 186.543 555.374 184.426C556.521 182.308 556.303 178.618 555.732 175.165C555.689 174.935 555.653 174.704 555.61 174.479C555.138 171.943 554.511 169.439 553.734 166.979C553.734 166.979 560.013 158.871 563.486 155.673C564.779 154.46 565.684 153.962 565.739 154.806C565.799 155.94 566.65 158.447 567.706 161.105C567.736 161.19 567.767 161.268 567.803 161.353C568.508 163.174 569.303 165.043 570.001 166.657C571.07 169.133 571.92 170.978 571.92 170.978Z" fill="#FFB0B1"/>
<path opacity="0.1" d="M567.803 161.353C567.213 164.525 565.782 167.48 563.658 169.91C561.535 172.339 558.797 174.154 555.732 175.165C555.249 172.395 554.582 169.66 553.734 166.979C553.734 166.979 565.557 151.717 565.739 154.806C565.781 155.977 566.704 158.574 567.803 161.353Z" fill="black"/>
<path opacity="0.1" d="M554.554 179.243L556.084 177.089C556.084 177.089 557.098 183.266 560.826 180.542C564.555 177.817 564.737 201.047 564.737 201.047L560.735 260.839L531.82 259.11L532.639 230.218L535.912 215.654L544.006 194.481L548.822 187.484L554.554 179.243Z" fill="black"/>
<path d="M564.737 201.417L561.094 255.481L560.711 261.209L544.589 260.244L543.982 260.208L531.838 259.48L532.658 230.582L535.93 216.018L544.025 194.845L548.84 187.848L554.572 179.577L556.102 177.429C556.102 177.429 557.116 183.606 560.845 180.882L560.924 180.827C564.567 178.521 564.737 201.417 564.737 201.417Z" fill="#1D2366"/>
<path d="M536.337 210.957C536.337 210.957 534.886 213.991 531.971 213.499C529.057 213.008 529.063 224.423 529.063 224.423C529.063 224.423 527.126 226.243 525.79 224.665C524.454 223.087 520.932 228.422 520.932 228.422L498.866 229.393C498.866 229.393 508.685 233.877 506.76 247.446C506.76 247.446 540.096 245.383 541.189 242.233C542.282 239.084 536.337 210.957 536.337 210.957Z" fill="white"/>
<path opacity="0.03" d="M536.337 210.957C536.337 210.957 534.886 213.991 531.971 213.499C529.057 213.008 529.063 224.423 529.063 224.423C529.063 224.423 527.126 226.243 525.79 224.665C524.454 223.087 520.932 228.422 520.932 228.422L498.866 229.393C498.866 229.393 508.685 233.877 506.76 247.446C506.76 247.446 540.096 245.383 541.189 242.233C542.282 239.084 536.337 210.957 536.337 210.957Z" fill="black"/>
<path d="M472.209 236.523L478.026 241.487L525.911 251.542L519.973 245.486L472.209 236.523Z" fill="white"/>
<path d="M554.645 181.155C553.849 182.368 551.572 188.582 549.672 194.008C548.087 198.529 546.763 202.503 546.763 202.503C546.763 202.503 543.672 222.614 542.094 226.249C540.515 229.884 541.371 244.06 541.371 244.06L535.487 279.069C535.487 279.069 532.821 297.122 528.705 307.906C524.642 318.52 520.118 323.496 519.979 323.653C521.8 321.19 531.728 272.679 531.728 272.679L535.007 211.497C535.007 211.497 535.487 205.683 535.973 200.713C536.459 195.743 546.296 188.959 546.296 188.959L555.78 175.481C556.734 176.755 556.096 178.976 554.645 181.155Z" fill="white"/>
<path d="M529.913 259.783C529.913 259.783 515.947 259.176 509.183 251.057C502.418 242.937 524.818 247.816 524.818 247.816L530.642 249.151L529.913 259.783Z" fill="#FFB0B1"/>
<path opacity="0.1" d="M595.134 352.709C594.387 355.353 594.266 358.136 594.782 360.835C579.547 361.915 563.249 357.8 563.249 357.8C560.213 360.592 552.216 364.706 552.216 364.706L547.856 310.697C545.069 303.415 543.976 265.263 543.976 265.263C543.976 265.263 544.225 263.267 544.583 260.275C544.583 260.202 544.583 260.123 544.614 260.05C545.701 251.694 547.856 236.007 548.913 233.889C550.37 230.976 544.431 223.227 544.431 223.227L547.134 200.197L547.461 197.418C553.157 194.875 557.523 186.756 557.523 186.756L560.875 180.888C564.518 178.551 564.706 201.447 564.706 201.447L561.063 255.511L573.135 252.18C573.135 252.18 597.193 345.803 595.134 352.709Z" fill="black"/>
<path d="M610.77 356.441C594.163 364.682 563.978 357.048 563.978 357.048C560.942 359.839 552.945 363.954 552.945 363.954L548.579 309.945C545.798 302.663 544.705 264.511 544.705 264.511C544.705 264.511 548.214 236.044 549.672 233.137C550.097 232.287 549.89 231.025 549.386 229.666C546.909 223.196 545.997 216.232 546.727 209.343L547.893 199.445L548.214 196.672C553.916 194.123 558.282 186.003 558.282 186.003L561.318 180.687L566.905 170.893L569.552 166.257L570.001 166.663L573.432 169.77C573.432 169.77 574.89 170.984 577.076 172.805C581.83 176.81 590.046 183.861 594.284 188.176C598.012 191.975 599.19 206.751 599.53 217.875C599.755 225.199 599.622 230.94 599.622 230.94C595.863 237.124 605.694 286.77 605.694 286.77C607.983 296.364 610.77 356.441 610.77 356.441Z" fill="white"/>
<path opacity="0.03" d="M578.891 185.882C578.891 185.882 567.494 207.564 568.817 215.805C570.141 224.046 573.906 233.373 572.09 235.552C571.467 236.377 570.66 237.047 569.734 237.51C568.808 237.972 567.788 238.213 566.753 238.216C564.931 238.337 560.073 241.73 560.073 242.094C560.073 242.458 555.586 242.458 551.572 244.157C547.559 245.856 541.632 246.821 541.632 246.821C541.632 246.821 530.095 246.457 529.02 247.549C527.946 248.642 526.84 255.177 529.142 260.39C531.443 265.603 534 269.493 535.93 270.203C537.861 270.913 550.115 266.811 560.055 265.84C569.995 264.869 580.786 256.998 580.786 256.998C580.786 256.998 592.669 252.75 594.752 245.607C596.834 238.465 592.207 199.208 592.207 199.208C592.207 199.208 588.71 180.912 578.891 185.882Z" fill="black"/>
<path opacity="0.03" d="M577.434 184.061C577.434 184.061 566.036 205.75 567.372 213.985C568.708 222.22 572.461 231.553 570.639 233.738C570.017 234.564 569.212 235.235 568.287 235.697C567.362 236.159 566.342 236.4 565.308 236.402C563.486 236.523 558.628 239.915 558.628 240.279C558.628 240.643 554.141 240.643 550.127 242.337C546.113 244.03 540.187 245.001 540.187 245.001C540.187 245.001 528.65 244.636 527.581 245.729C526.513 246.821 525.395 253.363 527.703 258.57C530.01 263.776 532.56 267.672 534.491 268.382C536.422 269.092 548.676 264.99 558.616 264.025C568.556 263.06 579.347 255.177 579.347 255.177C579.347 255.177 591.224 250.929 593.282 243.793C595.341 236.656 590.738 197.388 590.738 197.388C590.738 197.388 587.253 179.097 577.434 184.061Z" fill="black"/>
<path d="M578.533 184.79C578.533 184.79 567.135 206.478 568.471 214.713C569.807 222.948 573.56 232.281 571.744 234.46C571.123 235.288 570.317 235.96 569.39 236.424C568.464 236.887 567.443 237.129 566.407 237.13C564.585 237.251 559.727 240.643 559.727 241.001C559.727 241.36 555.246 241.366 551.226 243.065C547.206 244.764 541.286 245.729 541.286 245.729C541.286 245.729 529.749 245.365 528.674 246.457C527.599 247.549 526.494 254.091 528.796 259.298C531.097 264.504 533.653 268.4 535.584 269.11C537.515 269.82 549.769 265.718 559.709 264.747C569.649 263.776 580.439 255.906 580.439 255.906C580.439 255.906 592.323 251.658 594.406 244.515C596.488 237.373 591.892 198.116 591.892 198.116C591.892 198.116 588.345 179.85 578.533 184.79Z" fill="white"/>
<path opacity="0.1" d="M578.284 242.962C578.284 242.962 569.176 241.141 572.345 244.175C575.515 247.209 575.497 249.867 579.377 249.746C583.257 249.625 578.284 242.962 578.284 242.962Z" fill="black"/>
<path opacity="0.1" d="M593.677 308.246C593.677 308.246 589.56 311.031 597.436 317.451C605.311 323.872 593.677 308.246 593.677 308.246Z" fill="black"/>
<path opacity="0.1" d="M585.819 331.142C585.819 331.506 584.362 344.492 589.815 347.739C595.268 350.986 585.819 331.142 585.819 331.142Z" fill="black"/>
<path d="M499.242 229.362C494.846 229.514 485.349 230.855 490.274 240.037C494.628 248.162 501.944 242.731 506.061 238.611C505.057 234.769 502.616 231.459 499.242 229.362Z" fill="#FFB0B1"/>
<path d="M506.116 238.538L506.298 238.35L506.116 238.538Z" fill="#FFB0B1"/>
<path opacity="0.1" d="M577.076 173.175C572.412 176.361 568.502 179.049 567.736 179.607C565.648 181.155 561.664 190.239 559.096 194.875C557.049 198.607 550.4 199.566 547.893 199.803L548.214 197.03C553.916 194.481 558.282 186.361 558.282 186.361L569.552 166.615L573.432 170.14C573.432 170.14 574.89 171.354 577.076 173.175Z" fill="black"/>
<path d="M577.076 172.811C572.412 175.997 568.502 178.685 567.736 179.249C565.648 180.791 561.664 189.875 559.096 194.511C557.049 198.243 550.4 199.202 547.893 199.439L548.214 196.666C553.916 194.117 558.282 185.997 558.282 185.997L569.552 166.251L573.432 169.764C573.432 169.764 574.89 170.966 577.076 172.811Z" fill="#DCE7FF"/>
<path d="M568.101 157.348C568.103 160.991 566.998 164.549 564.931 167.549C562.49 171.097 558.858 173.653 554.692 174.753C550.527 175.853 546.105 175.424 542.229 173.545C538.353 171.666 535.28 168.46 533.566 164.509C531.853 160.559 531.613 156.125 532.891 152.014C534.169 147.902 536.879 144.384 540.53 142.098C544.181 139.812 548.531 138.91 552.79 139.556C557.05 140.201 560.937 142.351 563.746 145.616C566.555 148.88 568.1 153.043 568.101 157.348Z" fill="#FFB0B1"/>
<path opacity="0.1" d="M599.53 217.881C597.064 216.365 595.056 214.209 593.719 211.642C592.705 209.64 592.031 207.328 590.301 205.908C588.74 204.633 586.657 204.324 584.714 203.753C578.326 201.866 572.971 196.041 572.77 189.39C572.673 186.258 573.651 183.133 573.208 180.032C572.956 178.277 572.257 176.616 571.179 175.208C570.644 174.534 570.058 173.903 569.425 173.32C568.574 172.519 567.682 171.743 566.905 170.893C566.415 170.367 565.987 169.787 565.629 169.163C565.341 168.653 565.107 168.114 564.931 167.555C563.717 163.841 564.822 159.436 563.486 155.679L563.413 155.473C562.909 154.138 561.883 152.803 560.456 152.7C559.029 152.597 557.809 153.78 556.448 154.308C553.6 155.412 550.528 153.531 548.154 151.614C545.78 149.696 543.102 147.505 540.084 147.93C538.086 148.215 536.507 149.575 534.667 150.278C534.252 150.439 533.823 150.563 533.386 150.649C534.943 146.768 537.804 143.55 541.477 141.549C545.15 139.547 549.406 138.886 553.513 139.679C557.621 140.473 561.324 142.671 563.986 145.896C566.648 149.122 568.103 153.173 568.101 157.354C568.103 158.617 567.971 159.876 567.706 161.111C567.737 161.196 567.767 161.274 567.803 161.359C568.508 163.18 569.303 165.049 570.001 166.663L573.432 169.77C573.432 169.77 574.89 170.984 577.076 172.805C581.83 176.81 590.046 183.861 594.284 188.176C598.012 191.987 599.178 206.757 599.53 217.881Z" fill="black"/>
<path d="M534.455 139.192C535.323 137.426 535.754 135.447 536.793 133.772C538.317 131.345 540.976 129.792 543.709 128.851C550.844 126.393 565.921 122.825 570.427 128.851C571.313 130.065 572.048 131.412 573.274 132.249C574.209 132.886 575.339 133.159 576.365 133.639C579.237 134.986 581.071 137.923 582.049 140.921C583.026 143.919 583.318 147.135 584.034 150.224C584.951 154.187 586.56 157.943 588.163 161.675C590.052 166.081 592.056 170.65 595.699 173.763C600.672 178.011 601.771 184.025 606.386 188.686C611.851 194.22 611.675 203.353 608.857 210.605C608.487 211.557 608.068 212.553 608.214 213.566C608.359 214.58 609.112 215.502 609.823 216.309L612.81 219.677C605.742 221.382 597.745 217.693 594.454 211.218C593.44 209.215 592.766 206.909 591.029 205.483C589.475 204.209 587.386 203.905 585.449 203.335C579.061 201.441 573.705 195.61 573.505 188.959C573.408 185.833 574.386 182.708 573.942 179.613C573.696 177.846 572.995 176.174 571.908 174.759C570.238 172.58 567.718 171.117 566.358 168.69C564.057 164.63 565.806 159.357 564.148 155C563.638 153.665 562.618 152.33 561.191 152.226C559.764 152.123 558.543 153.307 557.177 153.835C554.335 154.939 551.263 153.064 548.888 151.14C546.514 149.217 543.836 147.032 540.812 147.463C538.815 147.742 537.242 149.101 535.402 149.811C534.042 150.333 531.285 150.8 530.095 149.653C527.581 147.341 533.404 141.352 534.455 139.192Z" fill="#591D4B"/>
<path opacity="0.1" d="M596.142 209.215C595.122 207.212 594.454 204.906 592.717 203.486C591.163 202.212 589.074 201.903 587.131 201.332C580.749 199.445 575.394 193.613 575.187 186.962C575.09 183.837 576.068 180.706 575.63 177.611C575.376 175.855 574.676 174.194 573.596 172.786C571.92 170.608 569.4 169.145 568.046 166.718C565.745 162.664 567.494 157.391 565.83 153.027C565.326 151.699 564.3 150.363 562.879 150.254C561.458 150.145 560.225 151.34 558.865 151.868C556.023 152.973 552.945 151.092 550.577 149.174C548.208 147.256 545.518 145.066 542.501 145.491C540.503 145.776 538.924 147.135 537.09 147.839C535.73 148.361 532.967 148.834 531.777 147.687C529.275 145.26 535.099 139.283 536.143 137.134C537.011 135.362 537.442 133.39 538.487 131.715C538.542 131.624 538.602 131.533 538.663 131.442C537.882 132.089 537.208 132.855 536.665 133.712C535.627 135.387 535.196 137.353 534.327 139.131C533.277 141.279 527.454 147.275 529.962 149.684C531.176 150.837 533.908 150.363 535.269 149.842C537.09 149.132 538.681 147.772 540.679 147.493C543.715 147.062 546.387 149.253 548.755 151.171C551.123 153.088 554.22 154.969 557.05 153.865C558.41 153.337 559.6 152.148 561.057 152.257C562.514 152.366 563.486 153.695 564.014 155.03C565.672 159.387 563.923 164.661 566.225 168.72C567.585 171.105 570.105 172.598 571.775 174.789C572.861 176.204 573.562 177.877 573.809 179.644C574.252 182.739 573.274 185.864 573.372 188.989C573.572 195.664 578.928 201.472 585.315 203.365C587.24 203.936 589.341 204.239 590.896 205.513C592.639 206.939 593.325 209.245 594.321 211.248C597.612 217.723 605.609 221.413 612.677 219.707L611.268 218.117C605.141 218.208 598.941 214.725 596.142 209.215Z" fill="black"/>
<path opacity="0.1" d="M554.281 181.519C553.485 182.732 551.208 188.947 549.307 194.372C547.528 193.68 545.913 189.268 545.913 189.268L555.398 175.784C556.369 177.119 555.732 179.334 554.281 181.519Z" fill="black"/>
<path d="M554.645 181.155C553.849 182.368 551.572 188.582 549.672 194.008C547.893 193.322 546.277 188.904 546.277 188.904L555.762 175.426C556.734 176.755 556.096 178.976 554.645 181.155Z" fill="#DCE7FF"/>
<path d="M499.497 243.15L494.239 226.577C494.177 226.383 494.153 226.178 494.17 225.975C494.187 225.772 494.244 225.575 494.338 225.394C494.432 225.213 494.56 225.052 494.716 224.921C494.872 224.789 495.052 224.69 495.247 224.629C495.638 224.507 496.062 224.544 496.426 224.733C496.79 224.921 497.064 225.246 497.19 225.636L502.448 242.191L501.926 245.656L499.497 243.15Z" fill="#BE8B87"/>
<path opacity="0.1" d="M494.737 225.12C495.129 224.996 495.554 225.033 495.92 225.222C496.285 225.41 496.561 225.736 496.686 226.128L501.944 242.682L501.55 245.28L501.932 245.68L502.455 242.215L497.166 225.66C497.04 225.27 496.766 224.946 496.402 224.757C496.038 224.568 495.614 224.531 495.223 224.653C494.893 224.76 494.609 224.973 494.415 225.26C494.518 225.205 494.626 225.158 494.737 225.12Z" fill="white"/>
<path d="M499.497 243.15L502.448 242.215L502.017 245.055L501.926 245.68L501.064 244.782L499.497 243.15Z" fill="#EFC8C4"/>
<path d="M501.064 244.782C501.115 244.717 501.179 244.664 501.252 244.624C501.295 244.597 501.344 244.583 501.395 244.583C501.445 244.583 501.495 244.597 501.538 244.624C501.579 244.674 501.614 244.729 501.641 244.788C501.681 244.855 501.736 244.912 501.801 244.955C501.866 244.998 501.94 245.026 502.017 245.037L501.926 245.644L501.064 244.782Z" fill="#727A9C"/>
<path d="M494.209 232.463C494.209 232.463 504.756 232.403 502.272 236.887C499.789 241.372 495.909 241.912 495.909 241.912L494.209 232.463Z" fill="#FFB0B1"/>
<path d="M428.611 31.2038H428.155C410.036 31.2038 394.011 40.7859 384.794 54.9253C375.576 40.7859 359.552 31.2038 341.433 31.2038H340.977C327.379 31.3333 314.381 36.8208 304.809 46.4737C295.237 56.1265 289.863 69.1648 289.855 82.7551C289.855 99.6314 297.251 123.577 311.673 143.282C339.149 180.827 384.794 213.675 384.794 213.675C384.794 213.675 430.438 180.833 457.909 143.282C472.337 123.577 479.726 99.6314 479.726 82.7551C479.719 69.1659 474.346 56.1285 464.775 46.4758C455.204 36.8231 442.208 31.3349 428.611 31.2038ZM422.095 146.17C420.032 146.162 418.019 145.531 416.321 144.359C414.623 143.187 413.319 141.53 412.58 139.604H401.747C401.034 139.6 400.34 139.373 399.762 138.955C399.184 138.537 398.751 137.95 398.523 137.274L395.196 127.255L384.666 164.024C384.461 164.731 384.032 165.354 383.443 165.797C382.854 166.24 382.137 166.48 381.4 166.481H381.187C380.418 166.444 379.684 166.144 379.11 165.632C378.535 165.119 378.154 164.425 378.03 163.665L367.179 98.442L359.248 137.037C359.066 137.77 358.644 138.422 358.049 138.887C357.453 139.352 356.719 139.605 355.963 139.604H340.704C340.246 139.623 339.79 139.55 339.361 139.389C338.933 139.227 338.542 138.98 338.211 138.664C337.881 138.347 337.618 137.967 337.438 137.546C337.259 137.125 337.166 136.672 337.166 136.215C337.166 135.757 337.259 135.305 337.438 134.884C337.618 134.463 337.881 134.083 338.211 133.766C338.542 133.449 338.933 133.203 339.361 133.041C339.79 132.88 340.246 132.806 340.704 132.826H353.291L364.525 80.9346C364.709 80.1674 365.155 79.488 365.785 79.0127C366.415 78.5373 367.191 78.2954 367.98 78.3284C368.768 78.3613 369.521 78.6671 370.109 79.1934C370.698 79.7197 371.085 80.4338 371.204 81.2138L382.286 147.748L391.722 114.851C391.919 114.158 392.334 113.547 392.907 113.11C393.479 112.672 394.178 112.432 394.898 112.424H394.965C395.678 112.424 396.374 112.649 396.952 113.068C397.53 113.486 397.961 114.076 398.183 114.754L404.201 132.844H412.447C413.033 131.064 414.1 129.48 415.53 128.268C416.96 127.056 418.697 126.262 420.55 125.974C422.403 125.686 424.3 125.915 426.03 126.637C427.761 127.358 429.259 128.543 430.358 130.061C431.457 131.58 432.116 133.372 432.26 135.24C432.405 137.109 432.03 138.981 431.177 140.65C430.324 142.319 429.026 143.72 427.427 144.698C425.827 145.677 423.989 146.194 422.114 146.194L422.095 146.17Z" fill="#424B76"/>
</g>
<defs>
<linearGradient id="paint0_linear" x1="216.37" y1="470.224" x2="216.37" y2="96.8096" gradientUnits="userSpaceOnUse">
<stop stop-color="#808080" stop-opacity="0.25"/>
<stop offset="0.54" stop-color="#808080" stop-opacity="0.12"/>
<stop offset="1" stop-color="#808080" stop-opacity="0.1"/>
</linearGradient>
<linearGradient id="paint1_linear" x1="135540" y1="281746" x2="135540" y2="90069.3" gradientUnits="userSpaceOnUse">
<stop stop-color="#808080" stop-opacity="0.25"/>
<stop offset="0.54" stop-color="#808080" stop-opacity="0.12"/>
<stop offset="1" stop-color="#808080" stop-opacity="0.1"/>
</linearGradient>
<clipPath id="clip0">
<rect width="671" height="475" fill="white"/>
</clipPath>
</defs>
</svg>
