<svg width="624" height="437" viewBox="0 0 624 437" fill="none" xmlns="http://www.w3.org/2000/svg">
<g clip-path="url(#clip0)">
<path d="M616.943 257.334C616.943 318.431 580.63 339.764 535.837 339.764C491.044 339.764 454.732 318.431 454.732 257.334C454.732 196.237 535.837 118.512 535.837 118.512C535.837 118.512 616.943 196.237 616.943 257.334Z" fill="#F2F2F2"/>
<path d="M532.883 330.418L533.713 279.285L568.282 216.027L533.844 271.264L534.217 248.273L558.042 202.506L534.316 242.189L534.987 200.837L560.5 164.402L535.093 194.335L535.513 118.512L532.875 218.888L533.092 214.747L507.153 175.034L532.676 222.696L530.259 268.878L530.187 267.652L500.285 225.86L530.097 271.983L529.794 277.758L529.74 277.845L529.765 278.319L523.633 395.487H531.826L532.808 334.967L562.548 288.958L532.883 330.418Z" fill="#3F3D56"/>
<path d="M448.243 201.726C448.243 280.745 401.279 308.335 343.347 308.335C285.414 308.335 238.45 280.745 238.45 201.726C238.45 122.707 343.347 22.1829 343.347 22.1829C343.347 22.1829 448.243 122.707 448.243 201.726Z" fill="#F2F2F2"/>
<path d="M339.525 296.248L340.599 230.116L385.309 148.302L340.768 219.742L341.251 190.007L372.065 130.815L341.379 182.138V182.138L342.247 128.657L375.243 81.5332L342.384 120.247L342.927 22.1831L339.516 152.003L339.797 146.647L306.249 95.2852L339.258 156.928L336.133 216.656L336.04 215.071L297.366 161.02L335.923 220.672L335.531 228.141L335.461 228.254L335.493 228.867L327.563 380.404H338.159L339.43 302.132L377.892 242.626L339.525 296.248Z" fill="#3F3D56"/>
<path d="M610.456 406.71C610.456 412.657 593.177 418.211 563.323 422.887C509.228 431.37 413.851 437 305.225 437C136.657 437 0 423.44 0 406.71C0 404.398 2.62303 402.133 7.59269 399.968C13.1975 397.515 21.7959 395.18 32.9821 392.997C56.0424 388.497 90.1124 384.65 131.669 381.791C179.907 378.479 238.243 376.508 301.173 376.432C302.52 376.426 303.87 376.424 305.225 376.426C312.806 376.426 320.32 376.453 327.768 376.508C331.267 376.532 334.751 376.563 338.219 376.602C375.282 376.996 410.358 378.049 442.234 379.638C443.658 379.708 445.075 379.785 446.486 379.855C446.969 379.879 447.451 379.908 447.933 379.932C448.063 379.938 448.192 379.944 448.321 379.955C454.585 380.285 460.711 380.636 466.7 381.008C468.665 381.126 470.611 381.25 472.54 381.379C491.284 382.597 508.587 384.015 524.148 385.609C526.807 385.879 529.414 386.156 531.97 386.438C551.661 388.597 568.24 391.05 581.014 393.715C599.893 397.651 610.456 402.057 610.456 406.71Z" fill="#3F3D56"/>
<path opacity="0.1" d="M442.836 420.231C479.567 420.231 509.343 413.33 509.343 404.817C509.343 396.304 479.567 389.403 442.836 389.403C406.106 389.403 376.33 396.304 376.33 404.817C376.33 413.33 406.106 420.231 442.836 420.231Z" fill="black"/>
<path opacity="0.1" d="M610.455 406.71C610.455 412.657 593.176 418.211 563.323 422.887C540.751 420.423 525.125 415.099 525.125 408.934C525.125 401.257 549.332 394.892 581.014 393.715C599.893 397.651 610.455 402.057 610.455 406.71Z" fill="black"/>
<path opacity="0.1" d="M330.911 399.679C330.911 409.836 258.527 418.068 169.24 418.068C80.7919 418.068 8.93246 409.993 7.59149 399.966C24.7588 392.47 69.9562 386.034 131.667 381.788C143.724 381.464 156.307 381.291 169.24 381.291C258.527 381.291 330.911 389.522 330.911 399.679Z" fill="black"/>
<path d="M301.172 0H32.9829V401.843H301.172V0Z" fill="#3F3D56"/>
<path d="M301.172 139.536H49.204V262.847H301.172V139.536Z" fill="#2F2E41"/>
<path d="M400.12 142.24H150.856V259.602H400.12V142.24Z" fill="#3F3D56"/>
<path d="M221.824 159.547H166.131V179.558H221.824V159.547Z" fill="#424B76"/>
<path d="M384.846 194.702H179.919V200.11H384.846V194.702Z" fill="#424B76"/>
<path d="M384.846 208.763H179.919V214.172H384.846V208.763Z" fill="#424B76"/>
<path d="M384.846 222.825H179.919V228.234H384.846V222.825Z" fill="#424B76"/>
<path d="M384.846 236.887H179.919V242.295H384.846V236.887Z" fill="#424B76"/>
<path d="M106.519 45.4304H50.8261V65.4414H106.519V45.4304Z" fill="#F2F2F2"/>
<path d="M269.541 80.5848H64.6141V85.9932H269.541V80.5848Z" fill="#F2F2F2"/>
<path d="M269.541 94.6467H64.6141V100.055H269.541V94.6467Z" fill="#F2F2F2"/>
<path d="M269.541 108.708H64.6141V114.117H269.541V108.708Z" fill="#F2F2F2"/>
<path d="M269.541 122.77H64.6141V128.179H269.541V122.77Z" fill="#F2F2F2"/>
<path d="M108.681 275.286H52.989V295.298H108.681V275.286Z" fill="#F2F2F2"/>
<path d="M271.703 310.441H66.7769V315.849H271.703V310.441Z" fill="#F2F2F2"/>
<path d="M271.703 324.503H66.7769V329.911H271.703V324.503Z" fill="#F2F2F2"/>
<path d="M271.703 338.565H66.7769V343.973H271.703V338.565Z" fill="#F2F2F2"/>
<path d="M271.703 352.626H66.7769V358.035H271.703V352.626Z" fill="#F2F2F2"/>
<path d="M425.251 82.6276C425.251 82.6276 436.369 96.8756 434.979 106.954C433.589 117.031 457.909 93.053 457.909 93.053C457.909 93.053 449.571 75.6774 454.087 67.3371C458.604 58.9968 425.251 82.6276 425.251 82.6276Z" fill="#FFB9B9"/>
<path d="M464.163 371.063C464.163 371.063 478.755 387.049 476.323 390.524C473.891 393.999 431.157 407.205 426.293 406.51C421.429 405.815 418.997 402.339 420.734 401.297C422.471 400.254 433.589 394.347 433.589 394.347L442.97 383.574C442.97 383.574 449.918 379.751 449.918 377.666C449.918 375.581 464.163 371.063 464.163 371.063Z" fill="#2F2E41"/>
<path d="M439.495 388.786C439.495 388.786 433.937 397.822 432.894 398.169C431.852 398.517 438.106 411.027 438.106 411.027L452.698 406.51L460.688 399.907L458.951 390.872L439.495 388.786Z" fill="#FFB9B9"/>
<path d="M424.556 216.42L417.608 247.349C417.608 247.349 393.635 301.213 410.312 310.596L446.791 380.446L466.247 371.758L433.589 300.171L448.528 217.81L424.556 216.42Z" fill="#D0CDE1"/>
<path opacity="0.1" d="M424.556 216.42L417.608 247.349C417.608 247.349 393.635 301.213 410.312 310.596L446.791 380.446L466.247 371.758L433.589 300.171L448.528 217.81L424.556 216.42Z" fill="black"/>
<path d="M426.988 221.285H423.463C423.188 231.973 423.786 242.666 425.251 253.256C427.683 270.98 433.937 311.639 433.937 311.639C433.937 311.639 433.242 319.284 435.326 321.716C437.411 324.149 437.758 321.021 438.106 326.582C438.453 332.142 441.754 370.8 441.754 370.8C441.754 370.8 444.012 378.709 441.58 380.446C439.148 382.184 434.284 391.567 437.758 392.957C441.233 394.347 465.205 396.084 466.247 395.042C467.29 393.999 466.247 328.667 466.247 328.667C466.247 328.667 465.552 315.461 464.858 314.766C464.163 314.071 461.036 304.688 462.078 302.603C463.12 300.518 462.426 294.263 462.426 293.22C462.426 292.178 459.299 293.22 462.078 288.703C464.858 284.185 465.205 248.044 465.205 248.044C465.205 248.044 480.144 225.108 475.628 219.2L426.988 221.285Z" fill="#D0CDE1"/>
<path d="M434.979 87.8403C447.643 87.8403 457.909 77.5716 457.909 64.9045C457.909 52.2374 447.643 41.9686 434.979 41.9686C422.315 41.9686 412.049 52.2374 412.049 64.9045C412.049 77.5716 422.315 87.8403 434.979 87.8403Z" fill="#FFB9B9"/>
<path d="M457.909 89.2303C457.909 89.2303 444.012 92.7055 438.453 101.046L433.589 102.088V106.953C433.589 106.953 424.556 135.797 426.641 148.308C428.725 160.818 426.641 185.144 423.166 191.747C419.692 198.349 418.65 199.739 420.387 202.52C422.124 205.3 424.556 214.683 422.819 218.853C421.082 223.023 422.819 227.193 438.8 228.236C454.782 229.278 477.365 229.278 477.365 223.718C477.365 218.158 475.975 202.52 477.365 198.349C478.754 194.179 479.449 191.399 478.755 187.576C478.06 183.754 480.144 141.01 480.144 141.01C480.144 141.01 480.492 98.2657 457.909 89.2303Z" fill="#2F2E41"/>
<path d="M425.251 196.612L406.142 225.108C406.142 225.108 385.992 243.526 393.288 251.866C400.584 260.207 419.692 227.54 419.692 227.54L440.538 203.91L425.251 196.612Z" fill="#FFB9B9"/>
<path d="M437.411 399.907C437.411 399.907 436.716 395.389 434.284 395.389C431.852 395.389 415.523 406.51 415.523 406.51C415.523 406.51 393.983 408.942 402.321 413.46C410.659 417.978 461.731 418.673 462.078 416.935C462.425 415.198 463.12 398.063 460.688 398.116C458.256 398.169 438.801 401.992 438.801 401.992L437.411 399.907Z" fill="#2F2E41"/>
<path d="M436.61 53.0552C435.795 53.4569 434.897 53.6598 433.989 53.6475C433.052 53.7008 431.933 53.6428 431.435 52.8472C431.199 52.3237 431.09 51.7519 431.116 51.1783C431.018 50.4417 430.771 49.7327 430.391 49.0942C430.011 48.4556 429.506 47.9007 428.905 47.463C428.305 47.0254 427.622 46.7139 426.898 46.5476C426.174 46.3813 425.424 46.3636 424.692 46.4954C424.792 47.6441 425.141 48.757 425.716 49.7564C424.7 50.1011 423.619 50.2068 422.556 50.0652C421.493 49.9237 420.477 49.5388 419.586 48.9404L419.234 53.6215C417.987 54.2172 416.391 54.3415 415.304 53.4888C414.217 52.6361 414.13 50.6349 415.359 50.0048C413.841 49.688 411.983 49.0075 411.872 47.4599C411.77 46.0479 413.269 45.0143 413.545 43.6258C413.77 42.4932 413.149 41.2623 413.588 40.1945C414.165 38.7916 416.26 38.4315 416.681 36.974C416.895 36.2318 416.587 35.4378 416.66 34.6688C416.853 32.6552 419.384 31.8192 421.403 31.9337C423.422 32.0481 425.625 32.5844 427.34 31.513C428.172 30.9934 428.753 30.1619 429.484 29.508C430.494 28.6414 431.75 28.1133 433.076 27.9979C434.402 27.8826 435.731 28.1859 436.875 28.8651C437.687 29.3702 438.396 30.0701 439.301 30.3771C441.154 31.0053 443.088 29.8166 445.025 29.5426C445.734 29.4212 446.461 29.4621 447.151 29.6622C447.842 29.8623 448.478 30.2163 449.012 30.6978C449.531 31.1963 449.87 31.8522 449.977 32.5634C450.085 33.2747 449.954 34.0015 449.606 34.631C450.743 34.4389 451.947 34.2532 453.019 34.6791C454.09 35.1049 454.909 36.388 454.413 37.4291C454.229 37.702 454.083 37.9992 453.981 38.3122C453.88 38.9179 454.463 39.4357 455.052 39.6094C455.641 39.783 456.28 39.7506 456.856 39.9616C459.238 40.8334 458.666 44.6414 460.54 46.35C461.184 46.8176 461.863 47.2333 462.572 47.5929C463.503 48.2383 464.184 49.1838 464.501 50.2713C464.819 51.3587 464.753 52.5222 464.316 53.5671C463.94 54.3993 463.31 55.1935 463.386 56.1034C463.493 57.3797 464.86 58.0788 465.819 58.9268C466.694 59.7341 467.293 60.7968 467.529 61.9639C467.766 63.1309 467.629 64.3429 467.137 65.4274C466.255 67.2676 464.345 68.6626 464.151 70.694C464.067 71.5771 464.332 72.4587 464.317 73.3456C464.261 74.1655 464.021 74.9622 463.614 75.6763C463.208 76.3904 462.646 77.0037 461.969 77.4703C460.608 78.3925 459.076 79.0305 457.462 79.346C456.705 79.5273 455.801 79.8112 455.618 80.5683C455.401 81.4659 456.402 82.2827 456.298 83.2004C456.233 83.5992 456.013 83.9559 455.686 84.1925C454.33 85.2527 452.185 84.3438 451.357 82.8356C450.528 81.3274 450.634 79.4997 450.762 77.7835L451.23 71.543C451.375 69.6012 451.361 67.2953 449.779 66.1613C448.029 64.9077 445.481 65.9226 443.503 65.0754C441.441 64.1927 440.702 61.6094 440.785 59.3679C440.868 57.1264 441.51 54.8814 441.141 52.6686C440.683 49.9266 438.245 48.0836 435.783 49.8606C437.947 49.5657 438.32 52.0497 436.61 53.0552Z" fill="#2F2E41"/>
<path opacity="0.1" d="M455.824 105.911C455.824 105.911 441.927 111.471 441.927 123.287C441.927 135.102 442.622 150.74 440.19 155.953C437.758 161.166 435.674 162.903 437.063 167.073C438.453 171.243 440.885 170.548 437.063 173.676C433.242 176.804 433.589 171.591 433.242 176.804C432.894 182.016 436.716 182.711 433.242 185.144C429.767 187.577 420.734 197.307 424.556 200.434C428.378 203.562 438.453 213.64 441.927 209.817C445.402 205.995 447.139 196.264 452.003 196.959C456.867 197.654 457.562 198.002 456.867 194.527C456.172 191.052 453.045 191.052 457.214 190.009C461.383 188.967 463.12 191.399 461.731 187.924C460.341 184.449 459.299 183.059 462.078 179.236C464.857 175.414 466.247 174.371 465.9 170.548C465.552 166.726 473.543 132.322 473.543 132.322C473.543 132.322 475.975 103.131 455.824 105.911Z" fill="black"/>
<path opacity="0.1" d="M452.003 105.216C452.003 105.216 438.106 110.776 438.106 122.592C438.106 134.407 438.8 150.045 436.368 155.258C433.937 160.47 431.852 162.208 433.242 166.378C434.631 170.548 437.063 169.853 433.242 172.981C429.42 176.109 429.767 170.896 429.42 176.109C429.073 181.321 432.894 182.016 429.42 184.449C425.946 186.881 416.913 196.612 420.734 199.739C424.556 202.867 434.631 212.945 438.106 209.122C441.58 205.3 443.317 195.569 448.181 196.264C453.045 196.959 453.74 197.307 453.045 193.832C452.35 190.357 449.223 190.357 453.392 189.314C457.561 188.271 459.299 190.704 457.909 187.229C456.519 183.754 455.477 182.364 458.256 178.541C461.036 174.719 462.425 173.676 462.078 169.853C461.731 166.031 469.721 131.627 469.721 131.627C469.721 131.627 472.153 102.436 452.003 105.216Z" fill="black"/>
<path d="M453.74 104.173C453.74 104.173 439.843 109.734 439.843 121.549C439.843 133.365 440.538 149.003 438.106 154.215C435.674 159.428 433.589 161.166 434.979 165.336C436.369 169.506 438.801 168.811 434.979 171.938C431.157 175.066 431.505 169.853 431.157 175.066C430.81 180.279 434.631 180.974 431.157 183.406C427.683 185.839 418.65 195.569 422.471 198.697C426.293 201.825 436.369 211.902 439.843 208.08C443.317 204.257 445.054 194.527 449.918 195.222C454.782 195.917 455.477 196.264 454.782 192.789C454.087 189.314 450.96 189.314 455.13 188.272C459.299 187.229 461.036 189.662 459.646 186.186C458.256 182.711 457.214 181.321 459.994 177.499C462.773 173.676 464.163 172.633 463.815 168.811C463.468 164.988 471.459 130.584 471.459 130.584C471.459 130.584 473.891 101.393 453.74 104.173Z" fill="#2F2E41"/>
<path d="M526.371 344.265C526.371 374.669 545.441 399.272 569.007 399.272L526.371 344.265Z" fill="#2F2E41"/>
<path d="M569.007 399.272C569.007 368.526 590.287 343.647 616.585 343.647L569.007 399.272Z" fill="#424B76"/>
<path d="M541.819 347.021C541.819 375.902 553.979 399.272 569.007 399.272L541.819 347.021Z" fill="#424B76"/>
<path d="M569.007 399.272C569.007 359.985 593.603 328.195 624 328.195L569.007 399.272Z" fill="#2F2E41"/>
<path d="M560.037 399.66C560.037 399.66 566.084 399.473 567.906 398.175C569.728 396.877 577.207 395.328 577.659 397.409C578.111 399.491 586.745 407.762 579.919 407.817C573.093 407.872 564.058 406.753 562.239 405.645C560.42 404.537 560.037 399.66 560.037 399.66Z" fill="#A8A8A8"/>
<path opacity="0.2" d="M580.041 407.092C573.214 407.147 564.18 406.029 562.361 404.921C560.976 404.077 560.424 401.049 560.239 399.652C560.111 399.657 560.037 399.66 560.037 399.66C560.037 399.66 560.42 404.537 562.239 405.645C564.058 406.753 573.093 407.872 579.919 407.817C581.89 407.801 582.57 407.1 582.533 406.061C582.259 406.689 581.507 407.081 580.041 407.092Z" fill="black"/>
</g>
<defs>
<clipPath id="clip0">
<rect width="624" height="437" fill="white"/>
</clipPath>
</defs>
</svg>
